<?xml version="1.0" encoding="utf-8"?>
<!-- Generator: Adobe Illustrator 26.0.1, SVG Export Plug-In . SVG Version: 6.00 Build 0)  -->
<svg version="1.1" id="Capa_1" xmlns="http://www.w3.org/2000/svg" xmlns:xlink="http://www.w3.org/1999/xlink" x="0px" y="0px"
	 viewBox="0 0 240.8 106.9" style="enable-background:new 0 0 240.8 106.9;" xml:space="preserve">
<style type="text/css">
	.st0{fill:none;stroke:#95A5A6;stroke-width:0.7087;stroke-miterlimit:5;}
	.st1{fill:none;stroke:#95A5A6;stroke-width:0.5669;stroke-miterlimit:22.9256;}
</style>
<g>
	<path class="st0" d="M46,22.9l0.9,0.9c-1.5,2-2.9,3.4-4,4.2c-1.2,0.9-2,1.4-2.6,1.4c-0.5,0-0.6-0.5-0.6-1.2c0-2,1.4-5.1,4-9.3
		c2.3-3.7,3.4-5.7,3.4-6s-0.2-0.5-0.5-0.5c-0.5,0-1.9,1.2-4,3.6c-2.2,2.3-4.8,5.6-7.9,9.9c-3.6,4.8-6,8.4-7.3,10.4
		c2.5,0.3,4.6,0.6,6.2,0.9c1.5,0.5,4,1.1,7,1.9c2.9,0.8,5.3,1.4,6.8,1.5c-1.7,2-2.9,3.4-3.7,4.2c-0.6,0.8-1.2,1.2-1.5,1.4
		c-0.6,0.3-1.4,0.3-2.5,0c-1.1-0.2-2.9-0.6-5.3-1.2c-2.5-0.6-4.6-1.1-6.8-1.5c-2.2-0.5-4-0.6-5.7-0.6c-0.9,0-1.9,0.2-2.5,0.3
		c-0.6,0.2-1.7,0.6-2.9,1.1c-1.2,0.5-2.2,0.8-2.6,0.8c-0.8,0-1.1-0.3-1.1-0.9c0-0.3,0.2-0.8,0.3-1.2c0.6-0.9,1.2-2,1.9-2.8
		c0.6-0.8,1.2-1.5,1.9-2.2s1.5-0.9,2.8-1.2s2.9-0.5,5-0.5c3.1-4.8,5.9-9,8.7-12.6c2.6-3.7,5.1-6.8,7.3-9.3s4-4.5,5.7-5.7
		c1.7-1.2,2.9-2,3.9-2c0.6,0,1.2,0.2,1.5,0.6c0.3,0.3,0.6,0.9,0.6,1.5C52,11.2,50,15.8,46,22.9z"/>
	<path class="st0" d="M53.9,30.5c2.9-2.6,5.7-4.5,8.4-5.9c2.6-1.4,4.8-1.9,6.2-1.9c0.5,0,0.8,0.2,1.1,0.5c0.3,0.3,0.6,0.8,0.8,1.1
		c0.2,0.5,0.3,0.8,0.3,0.9c0,0.3-0.2,0.6-0.5,0.8c-0.3,0.2-0.8,0.3-1.4,0.6c0.2,0.3,0.3,0.6,0.5,1.2c0.2,0.5,0.3,0.9,0.5,1.1
		c0.2,0.3,0.2,0.6,0.2,0.8c0,0.5-0.5,1.2-1.4,2.5c-0.9,1.2-1.5,2.2-1.9,2.8c-0.3,0.6-0.6,1.2-0.6,2.2c0,1.4,0.6,2.2,1.9,2.2
		c1.4,0,3.4-1.2,6.2-3.7v1.7c-4.8,5.3-8.2,7.9-10.2,7.9c-0.8,0-1.2-0.3-1.5-0.8c-0.3-0.5-0.5-1.2-0.5-2.2c0-1.5,0.5-3.7,1.5-6.5
		c-2.8,3.1-4.8,5.3-6.2,6.5c-1.4,1.2-2.5,2-3.3,2c-0.5,0-0.9-0.3-1.5-1.1c-0.6-0.8-1.2-1.7-1.7-2.8c-0.5-1.1-0.8-2.3-0.8-3.6
		c0-0.9,0.2-1.7,0.3-2.2c0.2-0.6,0.5-1.2,0.9-1.9S52.8,31.5,53.9,30.5z M67.3,27.4c-5,2.3-8.4,4.2-10.5,5.7c-2,1.5-3.1,3.3-3.1,4.8
		c0,0.6,0.2,1.1,0.3,1.5c0.2,0.5,0.5,0.6,0.8,0.6c0.2,0,0.6-0.2,1.1-0.5c2-1.2,3.9-2.6,5.4-4.6C63.2,33.2,65,30.7,67.3,27.4z"/>
	<path class="st0" d="M123.3,35.5V37c-2.2,1.9-4.3,3.6-6.4,5.3c-2.2,1.7-4.6,3.6-7.7,5.6c-1.5,2.2-2.9,3.9-4,5.3
		c-1.1,1.4-2,2.5-2.9,3.4c-0.8,0.9-1.2,1.4-1.2,1.4c-0.3,0.3-0.8,0.6-1.4,0.9c-0.6,0.3-1.1,0.5-1.5,0.5c-0.6,0-1.1-0.2-1.4-0.6
		c-0.3-0.5-0.6-0.9-0.6-1.5c0-1.5,0.8-3.1,2.3-4.8c1.5-1.7,3.9-3.4,7-5.3c1.5-2.2,2.9-4.3,4.3-6.5s2.6-4.2,3.6-6
		c1.1-1.9,2-3.6,2.8-5.4c-1.4,1.1-2.8,2.2-4,3.3c-1.4,1.1-2.6,2-3.9,2.9c-1.2,0.9-2,1.5-2.3,1.7c-0.3,0.2-0.6,0.5-0.8,0.6
		c-3.3,2.9-5.7,4.3-7.4,4.3c-1.5,0-2.8-0.8-3.9-2.2c-1.1-1.5-1.5-3.4-1.5-5.6c0-1.4,0.2-2.9,0.6-4.5c0.5-1.5,1.1-3.1,2-4.8
		c0.9-1.5,2-3.3,3.4-4.6c1.2-1.5,2.8-2.9,4.3-4.2c2.5-1.9,5.1-3.7,8.2-5.1c2.9-1.5,5.7-2.6,8.4-3.6c2.6-0.8,4.5-1.2,5.7-1.2
		c0.8,0,1.2,0.2,1.7,0.5c0.5,0.3,0.8,0.8,0.9,1.4c0.2,0.6,0.3,1.2,0.3,1.9c0,0.6-0.2,1.2-0.6,1.9c-0.6,0.8-1.5,1.7-2.9,2.6
		c-1.2,0.8-2.6,1.5-4,2.3c-1.4,0.6-2.2,1.1-2.5,1.1c-0.2,0-0.2,0-0.2-0.2s0.2-0.5,0.6-0.8s0.9-0.8,1.4-1.2c1.2-0.9,1.9-1.9,2-2.8
		c-1.9,0.5-3.7,1.2-5.4,2c-1.9,0.8-3.6,1.9-5.4,2.9c-1.7,1.1-3.6,2.5-5.3,3.9c-2,1.7-3.7,3.4-5.1,5.3c-1.4,1.9-2.5,3.6-3.3,5.1
		c-0.8,1.5-1.1,2.8-1.1,3.6c0,0.6,0.2,1.2,0.6,1.7c0.5,0.5,0.9,0.6,1.5,0.6c0.8,0,1.7-0.3,2.9-1.1c1.2-0.8,2.6-1.7,4.2-2.9
		c1.5-1.2,2.9-2.3,4.2-3.4c1.2-1.1,2.6-2.2,4.2-3.6c1.4-1.1,2.5-2,3.3-2.8c0.8-0.8,1.4-1.4,1.7-1.9c0.8-1.1,1.5-1.7,2.3-1.9
		c0.8-0.2,1.4,0,2,0.5c0.6,0.5,0.8,1.1,0.8,1.7c0,0.2-0.5,1.1-1.2,2.6c-0.8,1.5-2,3.7-3.7,6.7c-1.7,2.9-3.7,6.4-6.2,10.4
		C114.9,41.4,118.5,39.1,123.3,35.5z"/>
	<path class="st0" d="M126.4,30.5c2.9-2.6,5.7-4.5,8.4-5.9c2.6-1.4,4.8-1.9,6.2-1.9c0.5,0,0.8,0.2,1.1,0.5c0.3,0.3,0.6,0.8,0.8,1.1
		c0.2,0.5,0.3,0.8,0.3,0.9c0,0.3-0.2,0.6-0.5,0.8c-0.3,0.2-0.8,0.3-1.4,0.6c0.2,0.3,0.3,0.6,0.5,1.2c0.2,0.5,0.3,0.9,0.5,1.1
		c0.2,0.3,0.2,0.6,0.2,0.8c0,0.5-0.5,1.2-1.4,2.5c-0.9,1.2-1.5,2.2-1.9,2.8c-0.3,0.6-0.6,1.2-0.6,2.2c0,1.4,0.6,2.2,1.9,2.2
		c1.4,0,3.4-1.2,6.2-3.7v1.7c-4.8,5.3-8.2,7.9-10.2,7.9c-0.8,0-1.2-0.3-1.5-0.8c-0.3-0.5-0.5-1.2-0.5-2.2c0-1.5,0.5-3.7,1.5-6.5
		c-2.8,3.1-4.8,5.3-6.2,6.5c-1.4,1.2-2.5,2-3.3,2c-0.5,0-0.9-0.3-1.5-1.1s-1.2-1.7-1.7-2.8c-0.5-1.1-0.8-2.3-0.8-3.6
		c0-0.9,0.2-1.7,0.3-2.2c0.2-0.6,0.5-1.2,0.9-1.9C124.1,32.2,125.3,31.5,126.4,30.5z M140,27.4c-5,2.3-8.4,4.2-10.5,5.7
		c-2,1.5-3.1,3.3-3.1,4.8c0,0.6,0.2,1.1,0.3,1.5c0.2,0.5,0.5,0.6,0.8,0.6c0.2,0,0.6-0.2,1.1-0.5c2-1.2,3.9-2.6,5.4-4.6
		C135.7,33.2,137.7,30.7,140,27.4z"/>
	<path class="st0" d="M163.7,35.6v1.9c-2,2-3.7,3.6-5,4.6c-1.2,1.1-2.5,2-3.6,2.5c-1.1,0.6-2.2,0.9-3.3,0.9s-2-0.5-2.8-1.2
		c-0.9-0.8-1.5-1.9-2-3.3c-0.5-1.4-0.8-2.8-0.8-4.2c0-1.2,0.3-2.5,0.8-3.4c0.6-0.9,1.7-2.3,3.3-3.9c1.9-1.9,3.7-3.4,5.4-4.3
		c1.7-1.1,2.9-1.5,3.9-1.5c0.6,0,1.2,0.3,1.7,0.8c0.5,0.5,0.8,1.1,0.8,1.9c0,0.6-0.3,1.4-0.9,2.6c-0.6,1.1-1.4,2-2.2,2.9
		c-0.8,0.8-1.4,1.2-1.9,1.2c-0.5,0-0.8-0.3-0.8-0.8c0-0.2,0-0.3,0-0.5s0-0.3,0-0.5c0-0.2-0.2-0.3-0.3-0.3c-0.2,0-0.3,0-0.6,0.2
		c-1.9,1.4-3.3,2.3-3.9,2.8c-0.8,0.5-1.2,1.1-1.7,1.7c-0.5,0.6-0.6,1.1-0.6,1.7c0,1.1,0.3,2,1.1,2.8c0.8,0.8,1.7,1.1,2.8,1.1
		c1.2,0,2.6-0.5,4.3-1.4C159.5,38.7,161.6,37.3,163.7,35.6z"/>
	<path class="st0" d="M168.2,36.6v0.8c0,1.1,0.3,2,0.8,2.6c0.6,0.6,1.2,0.9,2.2,0.9s1.9-0.2,2.9-0.6c0.9-0.5,2-1.1,2.9-1.7
		c0.9-0.8,2.2-1.7,3.6-2.9v1.7c-2.2,2.6-4.2,4.5-6,5.9c-1.9,1.4-3.7,2-5.7,2c-1.7,0-2.9-0.6-4-2c-1.1-1.4-1.5-3.1-1.5-5.4
		c0-2,0.5-3.7,1.4-5.4c0.9-1.5,2.5-3.3,4.5-5.1c1.4-1.2,2.8-2.2,4.3-2.8c1.5-0.6,2.6-0.9,3.9-0.9c0.9,0,1.5,0.2,2.2,0.6
		c0.5,0.5,0.8,1.1,0.8,1.9c0,1.2-0.5,2.3-1.4,3.6c-0.9,1.2-2.2,2.3-4,3.6C173.2,34.4,170.9,35.5,168.2,36.6z M168.5,34.7
		c1.7-0.6,3.1-1.5,4.3-2.5c1.2-0.9,2.2-1.9,2.6-2.8c0.6-0.9,0.9-1.5,0.9-2c0-0.5-0.2-0.6-0.6-0.6c-0.3,0-0.9,0.2-1.7,0.6
		c-0.8,0.5-1.5,0.9-2.3,1.7s-1.5,1.5-2.2,2.5C169.2,32.5,168.7,33.6,168.5,34.7z"/>
	<path class="st0" d="M190.5,20.9h1.2c0.9-1.9,1.9-3.1,2.8-3.9c0.8-0.8,1.7-1.1,2.8-1.1s1.5,0.3,1.5,0.8c0,0.2-0.5,0.8-1.2,1.9
		c-0.8,0.9-1.4,1.9-1.9,2.5c0.6,0,1.2,0.2,1.7,0.2c0.5,0,0.9,0.2,1.2,0.2c-1.1,2-2.5,4-4,6.2c-0.5,0-0.9,0-1.4-0.2
		c-0.3,0-0.8,0-1.1-0.2c-0.3,0-0.8,0-1.4-0.2c-1.1,1.7-1.9,3.1-2.6,4.3c-0.6,1.2-1.2,2.5-1.5,3.6s-0.6,2.2-0.6,3.1
		c0,1.2,0.5,2,1.5,2c0.8,0,1.7-0.3,2.8-1.1c1.2-0.8,2.8-2,4.6-3.6v1.9c-5.1,5.6-8.8,8.4-11.3,8.4c-0.8,0-1.5-0.3-2-0.9
		c-0.5-0.6-0.8-1.5-0.8-2.5c0-0.8,0.2-1.5,0.5-2.5c0.3-0.9,0.8-2.5,1.5-4.3c-0.3,0.2-0.5,0.5-0.8,0.6c-0.3,0.2-0.5,0.5-0.6,0.6
		c-0.2,0.2-0.5,0.3-0.6,0.6c-0.2,0.2-0.5,0.5-0.6,0.6v-2c2-1.7,4.3-4.6,7.3-8.8c-0.3,0-0.6,0-0.8,0c-0.3,0-0.5,0-0.9,0
		c-1.1,0-2,0-2.5,0.2c-0.2,0-0.5,0.2-0.6,0.2s-0.3,0.2-0.5,0.2c-0.2,0-0.2,0-0.2-0.2c0-0.6,0.3-1.5,1.2-2.8c0.6-1.1,1.2-1.9,1.7-2.3
		s1.2-0.9,2-1.1C188.1,20.9,189.1,20.9,190.5,20.9z"/>
	<path class="st0" d="M198.4,30.5c2.9-2.6,5.7-4.5,8.4-5.9c2.6-1.4,4.8-1.9,6.2-1.9c0.5,0,0.8,0.2,1.1,0.5c0.3,0.3,0.6,0.8,0.8,1.1
		c0.2,0.5,0.3,0.8,0.3,0.9c0,0.3-0.2,0.6-0.5,0.8c-0.3,0.2-0.8,0.3-1.4,0.6c0.2,0.3,0.3,0.6,0.5,1.2c0.2,0.5,0.3,0.9,0.5,1.1
		c0.2,0.3,0.2,0.6,0.2,0.8c0,0.5-0.5,1.2-1.4,2.5c-0.9,1.2-1.5,2.2-1.9,2.8c-0.3,0.6-0.6,1.2-0.6,2.2c0,1.4,0.6,2.2,1.9,2.2
		c1.4,0,3.4-1.2,6.2-3.7v1.7c-4.8,5.3-8.2,7.9-10.2,7.9c-0.8,0-1.2-0.3-1.5-0.8c-0.3-0.5-0.5-1.2-0.5-2.2c0-1.5,0.5-3.7,1.5-6.5
		c-2.8,3.1-4.8,5.3-6.2,6.5c-1.4,1.2-2.5,2-3.3,2c-0.5,0-0.9-0.3-1.5-1.1c-0.6-0.8-1.2-1.7-1.7-2.8s-0.8-2.3-0.8-3.6
		c0-0.9,0.2-1.7,0.3-2.2c0.2-0.6,0.5-1.2,0.9-1.9C196.6,32.4,197.4,31.5,198.4,30.5z M212.1,27.4c-5,2.3-8.4,4.2-10.5,5.7
		c-2,1.5-3.1,3.3-3.1,4.8c0,0.6,0.2,1.1,0.3,1.5c0.2,0.5,0.5,0.6,0.8,0.6c0.2,0,0.6-0.2,1.1-0.5c2-1.2,3.9-2.6,5.4-4.6
		C207.7,33.2,209.7,30.7,212.1,27.4z"/>
</g>
<g>
	<path class="st0" d="M65.6,77.6c-1.7,1.9-3.1,3.6-4.5,4.8c-1.2,1.4-2.3,2.3-3.3,2.9c-0.8,0.6-1.4,0.9-1.7,0.9
		c-0.5,0-1.1-0.5-1.7-1.2c-0.6-0.8-1.1-1.9-1.5-3.1c-0.5-1.2-0.6-2.5-0.6-3.7c0-1.9,0.9-3.7,2.6-5.6c1.7-1.9,3.9-3.4,6-4.6
		c2.3-1.2,4-1.9,5.1-1.9c0.9,0,1.9,0.6,2.8,1.7c1.4-3.1,2.8-5.7,4.2-8.1c1.2-2.3,2.5-4.2,3.3-5.3c0.9-1.1,1.5-1.7,1.9-1.7
		c0.5,0,0.8,0.2,1.1,0.6s0.5,0.9,0.5,1.4c0,0.9-0.8,2.6-2.2,5.1c-1.4,2.3-2.8,4.6-4.2,7c-1.4,2.3-2.6,4.5-3.6,6.7
		c-0.9,2.2-1.5,4.2-1.5,6c0,1.7,0.6,2.5,1.7,2.5c0.6,0,1.5-0.3,2.5-1.1c0.9-0.8,2.5-2,4.3-3.7v2c-4,5.3-7.3,7.9-9.5,7.9
		c-0.9,0-1.5-0.3-1.9-1.1c-0.5-0.6-0.6-1.7-0.6-3.1C65,81.7,65.2,79.6,65.6,77.6z M67.8,70.7c-1.7,0.6-3.7,1.5-5.9,2.8
		c-2.3,1.2-3.7,2.2-4.2,2.6c-0.5,0.3-0.8,1.1-1.1,2.2c-0.3,1.1-0.5,1.9-0.5,2.3c0,0.3,0.2,0.6,0.3,0.8c0.2,0.2,0.5,0.3,0.8,0.3
		c0.3,0,0.6-0.2,0.9-0.3c0.3-0.2,0.9-0.6,1.7-1.4c0.8-0.6,1.2-1.1,1.4-1.2c0.3-0.3,1.1-0.9,2.2-1.9c1.1-0.9,1.9-1.7,2.5-2.2
		c0.5-0.5,0.9-1.1,1.2-1.7C67.3,72.2,67.7,71.4,67.8,70.7z"/>
	<path class="st0" d="M81.4,78.6v0.8c0,1.1,0.3,2,0.8,2.6c0.6,0.6,1.2,0.9,2.2,0.9c0.9,0,1.9-0.2,2.9-0.6c0.9-0.5,2-1.1,2.9-1.7
		s2.2-1.7,3.6-2.9v1.7c-2.2,2.6-4.2,4.5-6,5.9c-1.9,1.4-3.7,2-5.7,2c-1.7,0-2.9-0.6-4-2c-0.9-1.2-1.5-3.1-1.5-5.4
		c0-2,0.5-3.7,1.4-5.4c0.9-1.5,2.5-3.3,4.5-5.1c1.4-1.2,2.8-2.2,4.3-2.8c1.4-0.6,2.6-0.9,3.9-0.9c0.9,0,1.5,0.2,2.2,0.6
		c0.5,0.5,0.8,1.1,0.8,1.9c0,1.2-0.5,2.3-1.4,3.6c-0.9,1.2-2.2,2.3-4,3.6C86.2,76.4,84.1,77.5,81.4,78.6z M81.8,76.7
		c1.7-0.6,3.1-1.5,4.3-2.5c1.2-0.9,2.2-1.9,2.6-2.8c0.6-0.9,0.9-1.5,0.9-2c0-0.5-0.2-0.6-0.6-0.6c-0.3,0-0.9,0.2-1.7,0.6
		c-0.8,0.5-1.5,0.9-2.3,1.7c-0.8,0.8-1.5,1.5-2.2,2.5C82.2,74.5,81.9,75.6,81.8,76.7z"/>
	<path class="st0" d="M129.3,80.9l0.9,0.8c-0.3,0.5-0.5,0.9-0.8,1.4c-0.2,0.5-0.5,0.9-0.8,1.4c-0.3,0.5-0.6,0.9-0.8,1.2
		c-1.4,2.5-2.8,3.7-4,3.7c-0.5,0-0.9-0.2-1.4-0.6c-0.3-0.5-0.6-0.9-0.6-1.7c0-1.1,0.3-2.5,1.1-4.2c0.8-1.7,1.9-4,3.4-6.5
		c1.5-2.6,3.4-5.6,5.7-8.8c2.3-3.3,5-6.8,7.7-10.4c-1.7-0.3-3.7-0.3-5.9-0.3c-2.6,0-5.6,0.3-8.8,0.9c-3.3,0.6-6,1.2-8.4,2
		c-2.3,0.8-3.6,1.4-3.6,1.7c0,0.2,0,0.2,0.2,0.3c0.2,0,0.3,0.2,0.5,0.2c0.2,0,0.5,0,0.8,0.2c2.2,0.3,3.3,0.6,3.3,1.1
		c0,0.2-0.5,0.3-1.4,0.3c-0.9,0-2.2,0-3.6,0c-1.1,0-1.9,0-2.3-0.2c-0.5-0.2-0.8-0.3-0.9-0.5c-0.2-0.3-0.3-0.6-0.3-1.1
		c0-0.3,0.2-1.1,0.3-2.2c0.3-2,0.9-3.6,1.7-4.8c0.8-1.2,1.9-2.2,3.4-2.9s3.7-1.4,6.4-1.9c4.5-0.8,8.4-1.2,11.3-1.2
		c2.2,0,3.9,0.2,5.3,0.3c1.4,0.2,2.2,0.5,2.8,0.8c0.6,0.3,0.9,0.6,1.1,0.9c0.2,0.3,0.3,0.9,0.6,1.7l0.9,2.6c0,0.2,0.2,0.3,0.2,0.5
		s0,0.2,0.2,0.3s0,0.2,0,0.3c0,0.8-0.2,1.4-0.5,2c-0.3,0.6-0.9,1.4-1.9,2.6s-1.5,2-2,2.8C134.4,71.1,131,77,129.3,80.9z"/>
	<path class="st0" d="M142.3,72.5c2.9-2.6,5.7-4.5,8.4-5.9c2.6-1.2,4.8-1.9,6.2-1.9c0.5,0,0.8,0.2,1.1,0.5s0.6,0.8,0.8,1.1
		c0.2,0.5,0.3,0.8,0.3,0.9c0,0.3-0.2,0.6-0.5,0.8c-0.3,0.2-0.8,0.3-1.4,0.6c0.2,0.3,0.3,0.6,0.5,1.2c0.2,0.5,0.3,0.9,0.5,1.1
		c0.2,0.3,0.2,0.6,0.2,0.8c0,0.5-0.5,1.2-1.4,2.5c-0.9,1.2-1.5,2.2-1.9,2.8c-0.3,0.6-0.6,1.2-0.6,2.2c0,1.4,0.6,2.2,1.9,2.2
		c1.4,0,3.4-1.2,6.2-3.7v1.7c-4.8,5.3-8.2,7.9-10.2,7.9c-0.8,0-1.2-0.3-1.5-0.8c-0.3-0.5-0.5-1.2-0.5-2.2c0-1.5,0.5-3.7,1.5-6.5
		c-2.8,3.1-4.8,5.3-6.2,6.5c-1.4,1.2-2,2.2-2.8,2.2c-0.5,0-0.9-0.3-1.5-1.1c-0.6-0.8-1.2-1.7-1.7-2.8c-0.5-1.1-0.8-2.3-0.8-3.6
		c0-0.9,0.2-1.7,0.3-2.2s0.5-1.2,0.9-1.9C140.5,74.2,141.4,73.4,142.3,72.5z M156,69.3c-5,2.3-8.4,4.2-10.5,5.7
		c-2,1.5-3.1,3.3-3.1,4.8c0,0.6,0.2,1.1,0.3,1.5c0.2,0.3,0.5,0.6,0.8,0.6c0.2,0,0.6-0.2,1.1-0.5c2-1.2,3.9-2.6,5.4-4.6
		C151.5,74.8,153.7,72.5,156,69.3z"/>
	<path class="st0" d="M181.9,72.4c-3.3,3.7-5,6.4-5,7.7c0,0.8,0.3,1.2,0.9,1.2c0.6,0,1.2-0.3,2.2-0.9c0.9-0.6,2.3-1.5,4.2-3.1v2
		c-2.6,2.6-4.8,4.5-6.2,5.7c-1.4,1.2-2.6,1.7-3.6,1.7c-1.5,0-2.3-1.1-2.3-3.1c0-0.6,0.2-1.2,0.3-1.9c0.2-0.6,0.5-1.2,0.8-1.9
		s0.8-1.5,1.5-2.8c0.6-1.2,1.4-2.5,2.3-4c-1.1,0.6-2.5,1.7-4,3.3c-1.1,1.1-2,2-2.6,2.9c-0.8,0.9-1.5,2-2.3,3.1s-1.4,1.9-1.9,2.3
		c-0.3,0.3-0.8,0.6-1.2,0.6c-0.6,0-1.2-0.6-1.7-1.9c-0.5-1.2-0.8-2.8-0.8-4.5c0-1.1,0.2-1.9,0.3-2.5c0.3-0.6,0.8-1.4,1.4-2.5
		c1.2-2,2.5-3.4,3.4-4.3c0.9-0.9,1.9-1.4,2.8-1.4c0.6,0,1.1,0.2,1.4,0.3c0.3,0.2,0.6,0.5,0.6,0.9c0,0.2,0,0.3-0.2,0.6
		c-0.2,0.2-0.3,0.5-0.3,0.6c-0.2,0.2-0.5,0.5-0.9,0.9c-2.9,3.3-4.5,5.4-4.5,6.5c0,0.6,0.2,0.8,0.5,0.8c0.2,0,0.6-0.3,1.4-1.1
		c0.6-0.8,1.5-1.7,2.5-2.8c1.1-1.2,2.3-2.5,3.7-3.7c1.4-1.2,2.9-2.5,4.8-3.7c0.9-0.8,1.9-1.1,2.5-1.1c0.3,0,0.6,0.5,0.9,1.2
		c0.3,0.8,0.5,1.7,0.5,2.5C183.1,71,182.6,71.6,181.9,72.4z"/>
	<path class="st0" d="M196.9,77.6c-1.7,1.9-3.1,3.6-4.5,4.8c-1.2,1.4-2.3,2.3-3.3,2.9c-0.8,0.6-1.4,0.9-1.7,0.9
		c-0.5,0-1.1-0.5-1.7-1.2c-0.6-0.8-1.1-1.9-1.5-3.1c-0.5-1.2-0.6-2.5-0.6-3.7c0-1.9,0.9-3.7,2.6-5.6c1.7-1.9,3.9-3.4,6-4.6
		c2.3-1.2,4-1.9,5.1-1.9c0.9,0,1.9,0.6,2.8,1.7c1.4-3.1,2.8-5.7,4.2-8.1c1.4-2.3,2.5-4.2,3.3-5.3c0.9-1.1,1.5-1.7,1.9-1.7
		c0.5,0,0.8,0.2,1.1,0.6s0.5,0.9,0.5,1.4c0,0.9-0.8,2.6-2.2,5.1c-1.4,2.3-2.8,4.6-4.2,7c-1.4,2.3-2.6,4.5-3.6,6.7s-1.5,4.2-1.5,6
		c0,1.7,0.6,2.5,1.7,2.5c0.6,0,1.5-0.3,2.5-1.1c0.9-0.8,2.5-2,4.3-3.7v2c-4,5.3-7.3,7.9-9.5,7.9c-0.9,0-1.5-0.3-1.9-1.1
		c-0.3-0.8-0.6-1.7-0.6-3.1C196.3,81.7,196.4,79.6,196.9,77.6z M198.9,70.7c-1.7,0.6-3.7,1.5-5.9,2.8c-2.3,1.2-3.6,2.2-4.2,2.6
		c-0.5,0.3-0.8,1.1-1.1,2.2c-0.3,1.1-0.5,1.9-0.5,2.3c0,0.3,0.2,0.6,0.3,0.8s0.5,0.3,0.8,0.3s0.6-0.2,0.9-0.3
		c0.3-0.2,0.9-0.6,1.7-1.4c0.8-0.6,1.2-1.1,1.4-1.2c0.3-0.3,1.1-0.9,2.2-1.9c1.1-0.9,1.9-1.7,2.5-2.2c0.5-0.5,0.9-1.1,1.2-1.7
		C198.6,72.2,198.7,71.4,198.9,70.7z"/>
	<path class="st0" d="M221.7,77.5v2c-1.9,2.3-3.6,4.2-5.1,5.4c-1.5,1.2-2.9,1.9-4,1.9c-1.5,0-2.6-0.8-3.4-2.5
		c-0.8-1.7-1.1-3.4-1.1-5.3c0-0.8,0-1.4,0.2-2.2c0.2-0.6,0.3-1.2,0.5-1.7s0.6-1.1,1.2-2c2.6-4.2,5.1-6.2,7.4-6.2
		c1.1,0,1.7,0.5,1.7,1.4c0,0.6-0.3,1.5-1.1,2.8c-0.8,1.2-1.4,2.2-2,2.8c-1.7,1.5-2.8,2.6-3.3,3.3c-0.5,0.6-0.8,1.4-0.8,2.2
		c0,0.6,0.3,1.2,0.8,1.7c0.5,0.5,1.2,0.6,2,0.6c0.9,0,1.9-0.3,2.9-0.9C218.6,80,220,79,221.7,77.5z M219.8,64.9
		c-0.5,0-0.9-0.2-1.4-0.5c-0.5-0.3-0.6-0.8-0.6-1.4c0-0.8,0.5-1.7,1.2-2.8c0.8-1.1,1.5-1.5,2.5-1.5c0.6,0,1.1,0.2,1.4,0.5
		c0.3,0.3,0.6,0.9,0.6,1.5c0,0.8-0.5,1.7-1.2,2.6C221.5,64.3,220.6,64.9,219.8,64.9z"/>
	<path class="st0" d="M235,77.2v2.2c-4,5.3-7.1,7.9-9.6,7.9c-1.4,0-2.3-0.8-3.1-2.2c-0.8-1.4-1.1-3.4-1.1-5.7c0-1.9,0.5-4.2,1.4-6.8
		c0.9-2.6,2.2-5.4,3.7-8.1c1.5-2.8,3.1-5.1,4.8-7.1s3.1-3.4,4.5-4.3c0.6-0.3,1.1-0.5,1.4-0.5c0.5,0,0.6,0.2,0.8,0.5
		c0.2,0.3,0.2,0.9,0.2,1.9c0,2.6-1.1,5.9-3.3,9.8c-2.2,3.9-5.1,7.7-9,11.8c-0.2,0.9-0.3,1.7-0.3,2.3c0,1.2,0.3,2.2,0.8,2.9
		c0.5,0.8,1.2,1.1,2.2,1.1c0.5,0,0.9-0.2,1.5-0.6c0.6-0.3,1.1-0.8,1.7-1.4C232.1,80,233.3,78.9,235,77.2z M226.5,72.1
		c0.9-0.9,1.9-2,2.8-3.3c0.9-1.2,1.9-2.5,2.6-3.9s1.4-2.6,1.9-3.7c0.5-1.1,0.6-2,0.6-2.5s-0.2-0.6-0.5-0.6c-0.2,0-0.3,0.2-0.6,0.3
		c-1.1,0.9-2.5,2.8-3.9,5.6C228,66.8,227.1,69.3,226.5,72.1z"/>
</g>
<path class="st1" d="M2.3,104.3c-0.2,0-0.3,0-0.5,0c1.4-1.9,2.2-4.5,6.5-7.9c2-1.5,2.9-1.9,5-4c1.7-1.9,3.7-2.2,2.9-5.3l-4.3,1.2
	l-5,0.6c0.2-0.8,0.3-0.6-0.5-0.3c0.3-0.9,0.5-0.8-0.3-0.8l-1.7-2.9h0.2c-0.3-1.7-0.6-2.3-1.7-3.6L3.2,80c0.3-2.8,0.2-1.1-0.5-1.4
	c0.6-1.7,0.6-5,0.2-6.7C3.5,71.6,4,72.8,3.3,71c0.3-0.3,0.3-0.3,0.3-0.3l0,0c0,0,0-0.2,0.3-0.6l0.5-0.9C4.9,68,4.9,68,5.1,66.9
	c0.3-0.5,0.2,1.1,0.8-1.1C6.3,64.3,6,64.9,6,64.3c0.5-0.2,0.6,1.1,0.3-1.1c0.8,0.3,0.5,0.3,0.2-0.6c1.1-0.3,0.3,0.2,0.6-1.5
	c0.8-4.3-1.5-7.1,1.9-9.9c4.2-3.3,7.3-1.5,11.5-0.5c1.1,0.3,8.5,1.1,9.5,0.9c0.9,0.8-1.7,0.5,1.5,0.8l1.1-0.3
	c0.2,0.2,0.3,0.2,0.3,0.3c0,0.2,0.3,0.2,0.3,0.2c1.4,0.2,0.3,0.2,1.2,0l2.6,0.6c-0.3,1.1-0.5,0.8,0.8,0.5l0.3-0.2l2,1.7
	c0.8,0.5,1.2,0.6,2.3,0.9l5.3,1.2c0.3,1.4,0.3,2-0.6,3.3l-9.1,12.6c-0.5,0.6-0.8,0.8-1.4,1.2l-8.1,3.9c-0.6,0.5-0.3,0.2-0.8,0.8
	c-0.8-0.2-0.6-0.3-0.6,0.3c-0.6-0.2-0.5-0.2-0.3,0.5c-0.2,0.2-0.2-0.2-0.5,0.9c-0.2,0.6,0,0.5,0,1.1c1.4,0.6,1.7,0.8,2.9-0.3
	c2,0.2,0.6,0.2,1.1-0.5l0.2,0.2c0.8,0,0.6,0.2,1.4,0c2.3-0.3,0.5,0,1.2-0.5c1.9,0.3,0.5,0.2,0.9-0.5c0.3,0,1.7,0.2,1.9,0.2l1.9-0.8
	c2.2-0.2,5-0.9,5.7-2.5c1.1-2-0.3-2,3.9-4.2c2.6-1.4,3.7-2.9,5.6-3.7c0.9-0.3,1.9-0.6,2.6-1.1"/>
</svg>
