<?xml version="1.0" encoding="utf-8"?>
<!-- Generator: Adobe Illustrator 26.0.1, SVG Export Plug-In . SVG Version: 6.00 Build 0)  -->
<svg version="1.1" xmlns="http://www.w3.org/2000/svg" xmlns:xlink="http://www.w3.org/1999/xlink" x="0px" y="0px"
	 viewBox="0 0 159.1 70.6" style="enable-background:new 0 0 159.1 70.6;" xml:space="preserve">
<style type="text/css">
	.st0{fill:none;stroke:#C0392B;stroke-width:0.7087;stroke-miterlimit:22.9256;}
	.st1{opacity:0.85;}
	.st2{fill:#ECF0F1;stroke:#C0392B;stroke-width:0.7087;stroke-miterlimit:10;}
</style>
<g id="Capa_1">
	<path class="st0" d="M2.1,69.5c-0.1,0-0.2,0-0.3,0c0.9-1.2,1.4-2.9,4.2-5.1c1.3-1,1.9-1.2,3.2-2.6c1.1-1.2,2.4-1.4,1.9-3.4
		l-2.8,0.8l-3.2,0.4c0.1-0.5,0.2-0.4-0.3-0.2c0.2-0.6,0.3-0.5-0.2-0.5L3.5,57h0.1c-0.2-1.1-0.4-1.5-1.1-2.3l0.2-0.9
		c0.2-1.8,0.1-0.7-0.3-0.9c0.4-1.1,0.4-3.2,0.1-4.3c0.4-0.2,0.7,0.6,0.3-0.6C3,47.8,3,47.8,3,47.8l0,0c0,0,0-0.1,0.2-0.4l0.3-0.6
		c0.3-0.7,0.3-0.7,0.4-1.4c0.2-0.3,0.1,0.7,0.5-0.7c0.3-1,0.1-0.6,0.1-1c0.3-0.1,0.4,0.7,0.2-0.7c0.5,0.2,0.3,0.2,0.1-0.4
		c0.7-0.2,0.2,0.1,0.4-1c0.5-2.8-1-4.6,1.2-6.4c2.7-2.1,4.7-1,7.4-0.3c0.7,0.2,5.5,0.7,6.1,0.6c0.6,0.5-1.1,0.3,1,0.5l0.7-0.2
		c0.1,0.1,0.2,0.1,0.2,0.2c0,0.1,0.2,0.1,0.2,0.1c0.9,0.1,0.2,0.1,0.8,0l1.7,0.4c-0.2,0.7-0.3,0.5,0.5,0.3l0.2-0.1l1.3,1.1
		c0.5,0.3,0.8,0.4,1.5,0.6l3.4,0.8c0.2,0.9,0.2,1.3-0.4,2.1l-5.9,8.1c-0.3,0.4-0.5,0.5-0.9,0.8L19,52.7c-0.4,0.3-0.2,0.1-0.5,0.5
		c-0.5-0.1-0.4-0.2-0.4,0.2c-0.4-0.1-0.3-0.1-0.2,0.3c-0.1,0.1-0.1-0.1-0.3,0.6c-0.1,0.4,0,0.3,0,0.7c0.9,0.4,1.1,0.5,1.9-0.2
		c1.3,0.1,0.4,0.1,0.7-0.3l0.1,0.1c0.5,0,0.4,0.1,0.9,0c1.5-0.2,0.3,0,0.8-0.3c1.2,0.2,0.3,0.1,0.6-0.3c0.2,0,1.1,0.1,1.2,0.1
		l1.2-0.5c1.4-0.1,3.2-0.6,3.7-1.6c0.7-1.3-0.2-1.3,2.5-2.7c1.7-0.9,2.4-1.9,3.6-2.4c0.6-0.2,1.2-0.4,1.7-0.7"/>
</g>
<g id="Capa_2" class="st1">
	<g>
		<path class="st2" d="M30.3,17l0.6,0.6c-1,1.3-1.9,2.2-2.6,2.7c-0.8,0.6-1.3,0.9-1.7,0.9c-0.3,0-0.4-0.3-0.4-0.8
			c0-1.3,0.9-3.3,2.6-6c1.5-2.4,2.2-3.7,2.2-3.9s-0.1-0.3-0.3-0.3c-0.3,0-1.2,0.8-2.6,2.3C26.7,14,25,16.1,23,18.9
			c-2.3,3.1-3.9,5.4-4.7,6.7c1.6,0.2,3,0.4,4,0.6c1,0.3,2.6,0.7,4.5,1.2s3.4,0.9,4.4,1c-1.1,1.3-1.9,2.2-2.4,2.7
			c-0.4,0.5-0.8,0.8-1,0.9c-0.4,0.2-0.9,0.2-1.6,0c-0.7-0.1-1.9-0.4-3.4-0.8c-1.6-0.4-3-0.7-4.4-1s-2.6-0.4-3.7-0.4
			c-0.6,0-1.2,0.1-1.6,0.2s-1.1,0.4-1.9,0.7c-0.8,0.3-1.4,0.5-1.7,0.5c-0.5,0-0.7-0.2-0.7-0.6c0-0.2,0.1-0.5,0.2-0.8
			c0.4-0.6,0.8-1.3,1.2-1.8s0.8-1,1.2-1.4s1-0.6,1.8-0.8s1.9-0.3,3.2-0.3c2-3.1,3.8-5.8,5.6-8.1c1.7-2.4,3.3-4.4,4.7-6
			c1.4-1.6,2.6-2.9,3.7-3.7s1.9-1.3,2.5-1.3c0.4,0,0.8,0.1,1,0.4c0.2,0.2,0.4,0.6,0.4,1C34.2,9.4,32.9,12.4,30.3,17z"/>
		<path class="st2" d="M35.4,21.9c1.9-1.7,3.7-2.9,5.4-3.8s3.1-1.2,4-1.2c0.3,0,0.5,0.1,0.7,0.3c0.2,0.2,0.4,0.5,0.5,0.7
			c0.1,0.3,0.2,0.5,0.2,0.6c0,0.2-0.1,0.4-0.3,0.5s-0.5,0.2-0.9,0.4c0.1,0.2,0.2,0.4,0.3,0.8c0.1,0.3,0.2,0.6,0.3,0.7
			c0.1,0.2,0.1,0.4,0.1,0.5c0,0.3-0.3,0.8-0.9,1.6c-0.6,0.8-1,1.4-1.2,1.8s-0.4,0.8-0.4,1.4c0,0.9,0.4,1.4,1.2,1.4
			c0.9,0,2.2-0.8,4-2.4v1.1c-3.1,3.4-5.3,5.1-6.6,5.1c-0.5,0-0.8-0.2-1-0.5s-0.3-0.8-0.3-1.4c0-1,0.3-2.4,1-4.2
			c-1.8,2-3.1,3.4-4,4.2c-0.9,0.8-1.6,1.3-2.1,1.3c-0.3,0-0.6-0.2-1-0.7s-0.8-1.1-1.1-1.8c-0.3-0.7-0.5-1.5-0.5-2.3
			c0-0.6,0.1-1.1,0.2-1.4c0.1-0.4,0.3-0.8,0.6-1.2S34.7,22.5,35.4,21.9z M44.1,19.9c-3.2,1.5-5.4,2.7-6.8,3.7c-1.3,1-2,2.1-2,3.1
			c0,0.4,0.1,0.7,0.2,1c0.1,0.3,0.3,0.4,0.5,0.4c0.1,0,0.4-0.1,0.7-0.3c1.3-0.8,2.5-1.7,3.5-3C41.4,23.6,42.6,22,44.1,19.9z"/>
		<path class="st2" d="M80.2,25.1v1c-1.4,1.2-2.8,2.3-4.1,3.4c-1.4,1.1-3,2.3-5,3.6c-1,1.4-1.9,2.5-2.6,3.4s-1.3,1.6-1.9,2.2
			c-0.5,0.6-0.8,0.9-0.8,0.9c-0.2,0.2-0.5,0.4-0.9,0.6s-0.7,0.3-1,0.3c-0.4,0-0.7-0.1-0.9-0.4c-0.2-0.3-0.4-0.6-0.4-1
			c0-1,0.5-2,1.5-3.1s2.5-2.2,4.5-3.4c1-1.4,1.9-2.8,2.8-4.2c0.9-1.4,1.7-2.7,2.3-3.9c0.7-1.2,1.3-2.3,1.8-3.5
			c-0.9,0.7-1.8,1.4-2.6,2.1c-0.9,0.7-1.7,1.3-2.5,1.9s-1.3,1-1.5,1.1s-0.4,0.3-0.5,0.4c-2.1,1.9-3.7,2.8-4.8,2.8
			c-1,0-1.8-0.5-2.5-1.4c-0.7-1-1-2.2-1-3.6c0-0.9,0.1-1.9,0.4-2.9c0.3-1,0.7-2,1.3-3.1c0.6-1,1.3-2.1,2.2-3c0.8-1,1.8-1.9,2.8-2.7
			c1.6-1.2,3.3-2.4,5.3-3.3c1.9-1,3.7-1.7,5.4-2.3c1.7-0.5,2.9-0.8,3.7-0.8c0.5,0,0.8,0.1,1.1,0.3s0.5,0.5,0.6,0.9s0.2,0.8,0.2,1.2
			c0,0.4-0.1,0.8-0.4,1.2c-0.4,0.5-1,1.1-1.9,1.7c-0.8,0.5-1.7,1-2.6,1.5c-0.9,0.4-1.4,0.7-1.6,0.7c-0.1,0-0.1,0-0.1-0.1
			s0.1-0.3,0.4-0.5s0.6-0.5,0.9-0.8c0.8-0.6,1.2-1.2,1.3-1.8c-1.2,0.3-2.4,0.8-3.5,1.3c-1.2,0.5-2.3,1.2-3.5,1.9
			c-1.1,0.7-2.3,1.6-3.4,2.5c-1.3,1.1-2.4,2.2-3.3,3.4c-0.9,1.2-1.6,2.3-2.1,3.3s-0.7,1.8-0.7,2.3c0,0.4,0.1,0.8,0.4,1.1
			c0.3,0.3,0.6,0.4,1,0.4c0.5,0,1.1-0.2,1.9-0.7s1.7-1.1,2.7-1.9s1.9-1.5,2.7-2.2c0.8-0.7,1.7-1.4,2.7-2.3c0.9-0.7,1.6-1.3,2.1-1.8
			s0.9-0.9,1.1-1.2c0.5-0.7,1-1.1,1.5-1.2c0.5-0.1,0.9,0,1.3,0.3s0.5,0.7,0.5,1.1c0,0.1-0.3,0.7-0.8,1.7s-1.3,2.4-2.4,4.3
			s-2.4,4.1-4,6.7C74.8,28.9,77.1,27.4,80.2,25.1z"/>
		<path class="st2" d="M82.2,21.9c1.9-1.7,3.7-2.9,5.4-3.8s3.1-1.2,4-1.2c0.3,0,0.5,0.1,0.7,0.3c0.2,0.2,0.4,0.5,0.5,0.7
			c0.1,0.3,0.2,0.5,0.2,0.6c0,0.2-0.1,0.4-0.3,0.5c-0.2,0.1-0.5,0.2-0.9,0.4c0.1,0.2,0.2,0.4,0.3,0.8c0.1,0.3,0.2,0.6,0.3,0.7
			c0.1,0.2,0.1,0.4,0.1,0.5c0,0.3-0.3,0.8-0.9,1.6c-0.6,0.8-1,1.4-1.2,1.8S90,25.6,90,26.2c0,0.9,0.4,1.4,1.2,1.4
			c0.9,0,2.2-0.8,4-2.4v1.1c-3.1,3.4-5.3,5.1-6.6,5.1c-0.5,0-0.8-0.2-1-0.5s-0.3-0.8-0.3-1.4c0-1,0.3-2.4,1-4.2
			c-1.8,2-3.1,3.4-4,4.2c-0.9,0.8-1.6,1.3-2.1,1.3c-0.3,0-0.6-0.2-1-0.7s-0.8-1.1-1.1-1.8c-0.3-0.7-0.5-1.5-0.5-2.3
			c0-0.6,0.1-1.1,0.2-1.4c0.1-0.4,0.3-0.8,0.6-1.2S81.5,22.5,82.2,21.9z M91,19.9c-3.2,1.5-5.4,2.7-6.8,3.7c-1.3,1-2,2.1-2,3.1
			c0,0.4,0.1,0.7,0.2,1s0.3,0.4,0.5,0.4c0.1,0,0.4-0.1,0.7-0.3c1.3-0.8,2.5-1.7,3.5-3C88.2,23.6,89.5,22,91,19.9z"/>
		<path class="st2" d="M106.3,25.2v1.2c-1.3,1.3-2.4,2.3-3.2,3s-1.6,1.3-2.3,1.6c-0.7,0.4-1.4,0.6-2.1,0.6s-1.3-0.3-1.8-0.8
			c-0.6-0.5-1-1.2-1.3-2.1s-0.5-1.8-0.5-2.7c0-0.8,0.2-1.6,0.5-2.2c0.4-0.6,1.1-1.5,2.1-2.5c1.2-1.2,2.4-2.2,3.5-2.8
			c1.1-0.7,1.9-1,2.5-1c0.4,0,0.8,0.2,1.1,0.5c0.3,0.3,0.5,0.7,0.5,1.2c0,0.4-0.2,0.9-0.6,1.7c-0.4,0.7-0.9,1.3-1.4,1.9
			c-0.5,0.5-0.9,0.8-1.2,0.8c-0.3,0-0.5-0.2-0.5-0.5c0-0.1,0-0.2,0-0.3c0-0.1,0-0.2,0-0.3c0-0.1-0.1-0.2-0.2-0.2s-0.2,0-0.4,0.1
			c-1.2,0.9-2.1,1.5-2.5,1.8c-0.5,0.3-0.8,0.7-1.1,1.1S97,26,97,26.4c0,0.7,0.2,1.3,0.7,1.8s1.1,0.7,1.8,0.7c0.8,0,1.7-0.3,2.8-0.9
			C103.6,27.2,104.9,26.3,106.3,25.2z"/>
		<path class="st2" d="M109.2,25.8v0.5c0,0.7,0.2,1.3,0.5,1.7c0.4,0.4,0.8,0.6,1.4,0.6s1.2-0.1,1.9-0.4c0.6-0.3,1.3-0.7,1.9-1.1
			c0.6-0.5,1.4-1.1,2.3-1.9v1.1c-1.4,1.7-2.7,2.9-3.9,3.8c-1.2,0.9-2.4,1.3-3.7,1.3c-1.1,0-1.9-0.4-2.6-1.3s-1-2-1-3.5
			c0-1.3,0.3-2.4,0.9-3.5c0.6-1,1.6-2.1,2.9-3.3c0.9-0.8,1.8-1.4,2.8-1.8s1.7-0.6,2.5-0.6c0.6,0,1,0.1,1.4,0.4
			c0.3,0.3,0.5,0.7,0.5,1.2c0,0.8-0.3,1.5-0.9,2.3s-1.4,1.5-2.6,2.3C112.4,24.4,110.9,25.1,109.2,25.8z M109.4,24.6
			c1.1-0.4,2-1,2.8-1.6s1.4-1.2,1.7-1.8c0.4-0.6,0.6-1,0.6-1.3s-0.1-0.4-0.4-0.4c-0.2,0-0.6,0.1-1.1,0.4s-1,0.6-1.5,1.1
			s-1,1-1.4,1.6C109.8,23.2,109.5,23.9,109.4,24.6z"/>
		<path class="st2" d="M123.6,15.7h0.8c0.6-1.2,1.2-2,1.8-2.5c0.5-0.5,1.1-0.7,1.8-0.7s1,0.2,1,0.5c0,0.1-0.3,0.5-0.8,1.2
			c-0.5,0.6-0.9,1.2-1.2,1.6c0.4,0,0.8,0.1,1.1,0.1s0.6,0.1,0.8,0.1c-0.7,1.3-1.6,2.6-2.6,4c-0.3,0-0.6,0-0.9-0.1
			c-0.2,0-0.5,0-0.7-0.1c-0.2,0-0.5,0-0.9-0.1c-0.7,1.1-1.2,2-1.7,2.8c-0.4,0.8-0.8,1.6-1,2.3c-0.2,0.7-0.4,1.4-0.4,2
			c0,0.8,0.3,1.3,1,1.3c0.5,0,1.1-0.2,1.8-0.7c0.8-0.5,1.8-1.3,3-2.3v1.2c-3.3,3.6-5.7,5.4-7.3,5.4c-0.5,0-1-0.2-1.3-0.6
			s-0.5-1-0.5-1.6c0-0.5,0.1-1,0.3-1.6s0.5-1.6,1-2.8c-0.2,0.1-0.3,0.3-0.5,0.4s-0.3,0.3-0.4,0.4s-0.3,0.2-0.4,0.4
			c-0.1,0.1-0.3,0.3-0.4,0.4v-1.3c1.3-1.1,2.8-3,4.7-5.7c-0.2,0-0.4,0-0.5,0c-0.2,0-0.3,0-0.6,0c-0.7,0-1.3,0-1.6,0.1
			c-0.1,0-0.3,0.1-0.4,0.1s-0.2,0.1-0.3,0.1s-0.1,0-0.1-0.1c0-0.4,0.2-1,0.8-1.8c0.4-0.7,0.8-1.2,1.1-1.5s0.8-0.6,1.3-0.7
			C122,15.7,122.7,15.7,123.6,15.7z"/>
		<path class="st2" d="M128.7,21.9c1.9-1.7,3.7-2.9,5.4-3.8s3.1-1.2,4-1.2c0.3,0,0.5,0.1,0.7,0.3c0.2,0.2,0.4,0.5,0.5,0.7
			c0.1,0.3,0.2,0.5,0.2,0.6c0,0.2-0.1,0.4-0.3,0.5s-0.5,0.2-0.9,0.4c0.1,0.2,0.2,0.4,0.3,0.8c0.1,0.3,0.2,0.6,0.3,0.7
			c0.1,0.2,0.1,0.4,0.1,0.5c0,0.3-0.3,0.8-0.9,1.6c-0.6,0.8-1,1.4-1.2,1.8s-0.4,0.8-0.4,1.4c0,0.9,0.4,1.4,1.2,1.4
			c0.9,0,2.2-0.8,4-2.4v1.1c-3.1,3.4-5.3,5.1-6.6,5.1c-0.5,0-0.8-0.2-1-0.5s-0.3-0.8-0.3-1.4c0-1,0.3-2.4,1-4.2
			c-1.8,2-3.1,3.4-4,4.2c-0.9,0.8-1.6,1.3-2.1,1.3c-0.3,0-0.6-0.2-1-0.7c-0.4-0.5-0.8-1.1-1.1-1.8c-0.3-0.7-0.5-1.5-0.5-2.3
			c0-0.6,0.1-1.1,0.2-1.4c0.1-0.4,0.3-0.8,0.6-1.2C127.5,23.1,128,22.5,128.7,21.9z M137.5,19.9c-3.2,1.5-5.4,2.7-6.8,3.7
			c-1.3,1-2,2.1-2,3.1c0,0.4,0.1,0.7,0.2,1c0.1,0.3,0.3,0.4,0.5,0.4c0.1,0,0.4-0.1,0.7-0.3c1.3-0.8,2.5-1.7,3.5-3
			C134.7,23.6,136,22,137.5,19.9z"/>
	</g>
	<g>
		<path class="st2" d="M43,52.3c-1.1,1.2-2,2.3-2.9,3.1c-0.8,0.9-1.5,1.5-2.1,1.9c-0.5,0.4-0.9,0.6-1.1,0.6c-0.3,0-0.7-0.3-1.1-0.8
			c-0.4-0.5-0.7-1.2-1-2s-0.4-1.6-0.4-2.4c0-1.2,0.6-2.4,1.7-3.6c1.1-1.2,2.5-2.2,3.9-3c1.5-0.8,2.6-1.2,3.3-1.2
			c0.6,0,1.2,0.4,1.8,1.1c0.9-2,1.8-3.7,2.7-5.2c0.8-1.5,1.6-2.7,2.1-3.4c0.6-0.7,1-1.1,1.2-1.1c0.3,0,0.5,0.1,0.7,0.4
			c0.2,0.3,0.3,0.6,0.3,0.9c0,0.6-0.5,1.7-1.4,3.3c-0.9,1.5-1.8,3-2.7,4.5s-1.7,2.9-2.3,4.3c-0.6,1.4-1,2.7-1,3.9
			c0,1.1,0.4,1.6,1.1,1.6c0.4,0,1-0.2,1.6-0.7s1.6-1.3,2.8-2.4v1.3c-2.6,3.4-4.7,5.1-6.1,5.1c-0.6,0-1-0.2-1.2-0.7
			c-0.3-0.4-0.4-1.1-0.4-2C42.6,54.9,42.7,53.6,43,52.3z M44.4,47.8c-1.1,0.4-2.4,1-3.8,1.8c-1.5,0.8-2.4,1.4-2.7,1.7
			c-0.3,0.2-0.5,0.7-0.7,1.4s-0.3,1.2-0.3,1.5c0,0.2,0.1,0.4,0.2,0.5c0.1,0.1,0.3,0.2,0.5,0.2s0.4-0.1,0.6-0.2s0.6-0.4,1.1-0.9
			c0.5-0.4,0.8-0.7,0.9-0.8c0.2-0.2,0.7-0.6,1.4-1.2c0.7-0.6,1.2-1.1,1.6-1.4c0.3-0.3,0.6-0.7,0.8-1.1
			C44.1,48.8,44.3,48.3,44.4,47.8z"/>
		<path class="st2" d="M53.2,52.9v0.5c0,0.7,0.2,1.3,0.5,1.7c0.4,0.4,0.8,0.6,1.4,0.6c0.6,0,1.2-0.1,1.9-0.4
			c0.6-0.3,1.3-0.7,1.9-1.1s1.4-1.1,2.3-1.9v1.1c-1.4,1.7-2.7,2.9-3.9,3.8c-1.2,0.9-2.4,1.3-3.7,1.3c-1.1,0-1.9-0.4-2.6-1.3
			c-0.6-0.8-1-2-1-3.5c0-1.3,0.3-2.4,0.9-3.5c0.6-1,1.6-2.1,2.9-3.3c0.9-0.8,1.8-1.4,2.8-1.8c0.9-0.4,1.7-0.6,2.5-0.6
			c0.6,0,1,0.1,1.4,0.4c0.3,0.3,0.5,0.7,0.5,1.2c0,0.8-0.3,1.5-0.9,2.3c-0.6,0.8-1.4,1.5-2.6,2.3S54.9,52.2,53.2,52.9z M53.4,51.7
			c1.1-0.4,2-1,2.8-1.6s1.4-1.2,1.7-1.8c0.4-0.6,0.6-1,0.6-1.3s-0.1-0.4-0.4-0.4c-0.2,0-0.6,0.1-1.1,0.4c-0.5,0.3-1,0.6-1.5,1.1
			s-1,1-1.4,1.6S53.5,51,53.4,51.7z"/>
		<path class="st2" d="M84.1,54.4l0.6,0.5c-0.2,0.3-0.3,0.6-0.5,0.9c-0.1,0.3-0.3,0.6-0.5,0.9s-0.4,0.6-0.5,0.8
			c-0.9,1.6-1.8,2.4-2.6,2.4c-0.3,0-0.6-0.1-0.9-0.4c-0.2-0.3-0.4-0.6-0.4-1.1c0-0.7,0.2-1.6,0.7-2.7c0.5-1.1,1.2-2.6,2.2-4.2
			c1-1.7,2.2-3.6,3.7-5.7s3.2-4.4,5-6.7c-1.1-0.2-2.4-0.2-3.8-0.2c-1.7,0-3.6,0.2-5.7,0.6c-2.1,0.4-3.9,0.8-5.4,1.3
			s-2.3,0.9-2.3,1.1c0,0.1,0,0.1,0.1,0.2c0.1,0,0.2,0.1,0.3,0.1c0.1,0,0.3,0,0.5,0.1c1.4,0.2,2.1,0.4,2.1,0.7c0,0.1-0.3,0.2-0.9,0.2
			s-1.4,0-2.3,0c-0.7,0-1.2,0-1.5-0.1s-0.5-0.2-0.6-0.3c-0.1-0.2-0.2-0.4-0.2-0.7c0-0.2,0.1-0.7,0.2-1.4c0.2-1.3,0.6-2.3,1.1-3.1
			s1.2-1.4,2.2-1.9s2.4-0.9,4.1-1.2c2.9-0.5,5.4-0.8,7.3-0.8c1.4,0,2.5,0.1,3.4,0.2s1.4,0.3,1.8,0.5s0.6,0.4,0.7,0.6
			c0.1,0.2,0.2,0.6,0.4,1.1l0.6,1.7c0,0.1,0.1,0.2,0.1,0.3s0,0.1,0.1,0.2s0,0.1,0,0.2c0,0.5-0.1,0.9-0.3,1.3
			c-0.2,0.4-0.6,0.9-1.2,1.7s-1,1.3-1.3,1.8C87.4,48.1,85.2,51.9,84.1,54.4z"/>
		<path class="st2" d="M92.5,49c1.9-1.7,3.7-2.9,5.4-3.8c1.7-0.8,3.1-1.2,4-1.2c0.3,0,0.5,0.1,0.7,0.3s0.4,0.5,0.5,0.7
			c0.1,0.3,0.2,0.5,0.2,0.6c0,0.2-0.1,0.4-0.3,0.5c-0.2,0.1-0.5,0.2-0.9,0.4c0.1,0.2,0.2,0.4,0.3,0.8c0.1,0.3,0.2,0.6,0.3,0.7
			c0.1,0.2,0.1,0.4,0.1,0.5c0,0.3-0.3,0.8-0.9,1.6s-1,1.4-1.2,1.8c-0.2,0.4-0.4,0.8-0.4,1.4c0,0.9,0.4,1.4,1.2,1.4
			c0.9,0,2.2-0.8,4-2.4v1.1c-3.1,3.4-5.3,5.1-6.6,5.1c-0.5,0-0.8-0.2-1-0.5s-0.3-0.8-0.3-1.4c0-1,0.3-2.4,1-4.2
			c-1.8,2-3.1,3.4-4,4.2S93.3,58,92.8,58c-0.3,0-0.6-0.2-1-0.7s-0.8-1.1-1.1-1.8c-0.3-0.7-0.5-1.5-0.5-2.3c0-0.6,0.1-1.1,0.2-1.4
			s0.3-0.8,0.6-1.2C91.3,50.1,91.9,49.6,92.5,49z M101.3,46.9c-3.2,1.5-5.4,2.7-6.8,3.7c-1.3,1-2,2.1-2,3.1c0,0.4,0.1,0.7,0.2,1
			c0.1,0.2,0.3,0.4,0.5,0.4c0.1,0,0.4-0.1,0.7-0.3c1.3-0.8,2.5-1.7,3.5-3S99.8,49,101.3,46.9z"/>
		<path class="st2" d="M118,48.9c-2.1,2.4-3.2,4.1-3.2,5c0,0.5,0.2,0.8,0.6,0.8s0.8-0.2,1.4-0.6c0.6-0.4,1.5-1,2.7-2v1.3
			c-1.7,1.7-3.1,2.9-4,3.7s-1.7,1.1-2.3,1.1c-1,0-1.5-0.7-1.5-2c0-0.4,0.1-0.8,0.2-1.2s0.3-0.8,0.5-1.2s0.5-1,1-1.8
			c0.4-0.8,0.9-1.6,1.5-2.6c-0.7,0.4-1.6,1.1-2.6,2.1c-0.7,0.7-1.3,1.3-1.7,1.9c-0.5,0.6-1,1.3-1.5,2s-0.9,1.2-1.2,1.5
			c-0.2,0.2-0.5,0.4-0.8,0.4c-0.4,0-0.8-0.4-1.1-1.2c-0.3-0.8-0.5-1.8-0.5-2.9c0-0.7,0.1-1.2,0.2-1.6c0.2-0.4,0.5-0.9,0.9-1.6
			c0.8-1.3,1.6-2.2,2.2-2.8s1.2-0.9,1.8-0.9c0.4,0,0.7,0.1,0.9,0.2c0.2,0.1,0.4,0.3,0.4,0.6c0,0.1,0,0.2-0.1,0.4
			c-0.1,0.1-0.2,0.3-0.2,0.4c-0.1,0.1-0.3,0.3-0.6,0.6c-1.9,2.1-2.9,3.5-2.9,4.2c0,0.4,0.1,0.5,0.3,0.5c0.1,0,0.4-0.2,0.9-0.7
			c0.4-0.5,1-1.1,1.6-1.8c0.7-0.8,1.5-1.6,2.4-2.4c0.9-0.8,1.9-1.6,3.1-2.4c0.6-0.5,1.2-0.7,1.6-0.7c0.2,0,0.4,0.3,0.6,0.8
			s0.3,1.1,0.3,1.6C118.8,48,118.5,48.4,118,48.9z"/>
		<path class="st2" d="M127.7,52.3c-1.1,1.2-2,2.3-2.9,3.1c-0.8,0.9-1.5,1.5-2.1,1.9c-0.5,0.4-0.9,0.6-1.1,0.6
			c-0.3,0-0.7-0.3-1.1-0.8s-0.7-1.2-1-2s-0.4-1.6-0.4-2.4c0-1.2,0.6-2.4,1.7-3.6c1.1-1.2,2.5-2.2,3.9-3c1.5-0.8,2.6-1.2,3.3-1.2
			c0.6,0,1.2,0.4,1.8,1.1c0.9-2,1.8-3.7,2.7-5.2s1.6-2.7,2.1-3.4c0.6-0.7,1-1.1,1.2-1.1c0.3,0,0.5,0.1,0.7,0.4
			c0.2,0.3,0.3,0.6,0.3,0.9c0,0.6-0.5,1.7-1.4,3.3c-0.9,1.5-1.8,3-2.7,4.5s-1.7,2.9-2.3,4.3c-0.6,1.4-1,2.7-1,3.9
			c0,1.1,0.4,1.6,1.1,1.6c0.4,0,1-0.2,1.6-0.7s1.6-1.3,2.8-2.4v1.3c-2.6,3.4-4.7,5.1-6.1,5.1c-0.6,0-1-0.2-1.2-0.7s-0.4-1.1-0.4-2
			C127.3,54.9,127.4,53.6,127.7,52.3z M129,47.8c-1.1,0.4-2.4,1-3.8,1.8c-1.5,0.8-2.3,1.4-2.7,1.7c-0.3,0.2-0.5,0.7-0.7,1.4
			s-0.3,1.2-0.3,1.5c0,0.2,0.1,0.4,0.2,0.5s0.3,0.2,0.5,0.2s0.4-0.1,0.6-0.2c0.2-0.1,0.6-0.4,1.1-0.9c0.5-0.4,0.8-0.7,0.9-0.8
			c0.2-0.2,0.7-0.6,1.4-1.2c0.7-0.6,1.2-1.1,1.6-1.4c0.3-0.3,0.6-0.7,0.8-1.1C128.8,48.8,128.9,48.3,129,47.8z"/>
		<path class="st2" d="M143.7,52.2v1.3c-1.2,1.5-2.3,2.7-3.3,3.5s-1.9,1.2-2.6,1.2c-1,0-1.7-0.5-2.2-1.6s-0.7-2.2-0.7-3.4
			c0-0.5,0-0.9,0.1-1.4c0.1-0.4,0.2-0.8,0.3-1.1s0.4-0.7,0.8-1.3c1.7-2.7,3.3-4,4.8-4c0.7,0,1.1,0.3,1.1,0.9c0,0.4-0.2,1-0.7,1.8
			s-0.9,1.4-1.3,1.8c-1.1,1-1.8,1.7-2.1,2.1c-0.3,0.4-0.5,0.9-0.5,1.4c0,0.4,0.2,0.8,0.5,1.1s0.8,0.4,1.3,0.4c0.6,0,1.2-0.2,1.9-0.6
			C141.7,53.8,142.6,53.2,143.7,52.2z M142.5,44.1c-0.3,0-0.6-0.1-0.9-0.3c-0.3-0.2-0.4-0.5-0.4-0.9c0-0.5,0.3-1.1,0.8-1.8
			s1-1,1.6-1c0.4,0,0.7,0.1,0.9,0.3s0.4,0.6,0.4,1c0,0.5-0.3,1.1-0.8,1.7S143,44.1,142.5,44.1z"/>
		<path class="st2" d="M152.3,52v1.4c-2.6,3.4-4.6,5.1-6.2,5.1c-0.9,0-1.5-0.5-2-1.4s-0.7-2.2-0.7-3.7c0-1.2,0.3-2.7,0.9-4.4
			s1.4-3.5,2.4-5.2c1-1.8,2-3.3,3.1-4.6s2-2.2,2.9-2.8c0.4-0.2,0.7-0.3,0.9-0.3c0.3,0,0.4,0.1,0.5,0.3s0.1,0.6,0.1,1.2
			c0,1.7-0.7,3.8-2.1,6.3c-1.4,2.5-3.3,5-5.8,7.6c-0.1,0.6-0.2,1.1-0.2,1.5c0,0.8,0.2,1.4,0.5,1.9s0.8,0.7,1.4,0.7
			c0.3,0,0.6-0.1,1-0.4c0.4-0.2,0.7-0.5,1.1-0.9C150.4,53.8,151.2,53.1,152.3,52z M146.8,48.7c0.6-0.6,1.2-1.3,1.8-2.1
			s1.2-1.6,1.7-2.5s0.9-1.7,1.2-2.4s0.4-1.3,0.4-1.6s-0.1-0.4-0.3-0.4c-0.1,0-0.2,0.1-0.4,0.2c-0.7,0.6-1.6,1.8-2.5,3.6
			S147.2,46.9,146.8,48.7z"/>
	</g>
</g>
</svg>
