<?xml version="1.0" encoding="utf-8"?>
<!-- Generator: Adobe Illustrator 26.0.1, SVG Export Plug-In . SVG Version: 6.00 Build 0)  -->
<svg version="1.1" xmlns="http://www.w3.org/2000/svg" xmlns:xlink="http://www.w3.org/1999/xlink" x="0px" y="0px"
	 viewBox="0 0 147.4 124.6" style="enable-background:new 0 0 147.4 124.6;" xml:space="preserve">
<style type="text/css">
	.st0{display:none;fill:#D25627;}
	.st1{display:none;fill:#F29C1F;}
	.st2{fill:#EDF0F1;stroke:#BDC3C7;stroke-width:0.25;stroke-miterlimit:5;}
	.st3{fill:none;stroke:#35495E;stroke-miterlimit:22.9256;}
	.st4{display:none;fill:none;stroke:#2E3192;stroke-width:0.5669;stroke-miterlimit:22.9256;}
</style>
<g id="Capa_3">
	<rect class="st0" width="147.4" height="124.6"/>
	<rect y="0" class="st1" width="147.4" height="124.6"/>
</g>
<g id="Capa_1">
	<g id="Capa_2">
		<g>
			<path class="st2" d="M29.2,65.7l0.6,0.6c-1,1.3-1.9,2.2-2.6,2.7c-0.8,0.6-1.3,0.9-1.7,0.9c-0.3,0-0.4-0.3-0.4-0.8
				c0-1.3,0.9-3.3,2.6-6c1.5-2.4,2.2-3.7,2.2-3.9c0-0.2-0.1-0.3-0.3-0.3c-0.3,0-1.2,0.8-2.6,2.3c-1.4,1.5-3.1,3.7-5.1,6.5
				c-2.3,3.1-3.9,5.4-4.7,6.7c1.6,0.2,3,0.4,4,0.6c1,0.3,2.6,0.7,4.5,1.2s3.4,0.9,4.4,1c-1.1,1.3-1.9,2.2-2.4,2.7
				c-0.4,0.5-0.8,0.8-1,0.9c-0.4,0.2-0.9,0.2-1.6,0c-0.7-0.1-1.9-0.4-3.4-0.8c-1.6-0.4-3-0.7-4.4-1s-2.6-0.4-3.7-0.4
				c-0.6,0-1.2,0.1-1.6,0.2s-1.1,0.4-1.9,0.7c-0.8,0.3-1.4,0.5-1.7,0.5c-0.5,0-0.7-0.2-0.7-0.6c0-0.2,0.1-0.5,0.2-0.8
				c0.4-0.6,0.8-1.3,1.2-1.8s0.8-1,1.2-1.4c0.4-0.3,1-0.6,1.8-0.8c0.8-0.2,1.9-0.3,3.2-0.3c2-3.1,3.8-5.8,5.6-8.1
				c1.7-2.4,3.3-4.4,4.7-6c1.4-1.6,2.6-2.9,3.7-3.7c1.1-0.8,1.9-1.3,2.5-1.3c0.4,0,0.8,0.1,1,0.4c0.2,0.2,0.4,0.6,0.4,1
				C33.1,58,31.8,61.1,29.2,65.7z"/>
			<path class="st2" d="M34.2,70.5c1.9-1.7,3.7-2.9,5.4-3.8s3.1-1.2,4-1.2c0.3,0,0.5,0.1,0.7,0.3c0.2,0.2,0.4,0.5,0.5,0.7
				c0.1,0.3,0.2,0.5,0.2,0.6c0,0.2-0.1,0.4-0.3,0.5c-0.2,0.1-0.5,0.2-0.9,0.4c0.1,0.2,0.2,0.4,0.3,0.8c0.1,0.3,0.2,0.6,0.3,0.7
				c0.1,0.2,0.1,0.4,0.1,0.5c0,0.3-0.3,0.8-0.9,1.6c-0.6,0.8-1,1.4-1.2,1.8c-0.2,0.4-0.4,0.8-0.4,1.4c0,0.9,0.4,1.4,1.2,1.4
				c0.9,0,2.2-0.8,4-2.4v1.1c-3.1,3.4-5.3,5.1-6.6,5.1c-0.5,0-0.8-0.2-1-0.5c-0.2-0.3-0.3-0.8-0.3-1.4c0-1,0.3-2.4,1-4.2
				c-1.8,2-3.1,3.4-4,4.2s-1.6,1.3-2.1,1.3c-0.3,0-0.6-0.2-1-0.7c-0.4-0.5-0.8-1.1-1.1-1.8c-0.3-0.7-0.5-1.5-0.5-2.3
				c0-0.6,0.1-1.1,0.2-1.4s0.3-0.8,0.6-1.2C33,71.7,33.5,71.2,34.2,70.5z M43,68.5c-3.2,1.5-5.4,2.7-6.8,3.7c-1.3,1-2,2.1-2,3.1
				c0,0.4,0.1,0.7,0.2,1c0.1,0.3,0.3,0.4,0.5,0.4c0.1,0,0.4-0.1,0.7-0.3c1.3-0.8,2.5-1.7,3.5-3C40.2,72.2,41.5,70.6,43,68.5z"/>
			<path class="st2" d="M79,73.7v1c-1.4,1.2-2.8,2.3-4.1,3.4c-1.4,1.1-3,2.3-5,3.6c-1,1.4-1.9,2.5-2.6,3.4s-1.3,1.6-1.9,2.2
				c-0.5,0.6-0.8,0.9-0.8,0.9c-0.2,0.2-0.5,0.4-0.9,0.6c-0.4,0.2-0.7,0.3-1,0.3c-0.4,0-0.7-0.1-0.9-0.4c-0.2-0.3-0.4-0.6-0.4-1
				c0-1,0.5-2,1.5-3.1c1-1.1,2.5-2.2,4.5-3.4c1-1.4,1.9-2.8,2.8-4.2c0.9-1.4,1.7-2.7,2.3-3.9c0.7-1.2,1.3-2.3,1.8-3.5
				c-0.9,0.7-1.8,1.4-2.6,2.1c-0.9,0.7-1.7,1.3-2.5,1.9s-1.3,1-1.5,1.1s-0.4,0.3-0.5,0.4c-2.1,1.9-3.7,2.8-4.8,2.8
				c-1,0-1.8-0.5-2.5-1.4c-0.7-1-1-2.2-1-3.6c0-0.9,0.1-1.9,0.4-2.9c0.3-1,0.7-2,1.3-3.1c0.6-1,1.3-2.1,2.2-3c0.8-1,1.8-1.9,2.8-2.7
				c1.6-1.2,3.3-2.4,5.3-3.3c1.9-1,3.7-1.7,5.4-2.3c1.7-0.5,2.9-0.8,3.7-0.8c0.5,0,0.8,0.1,1.1,0.3c0.3,0.2,0.5,0.5,0.6,0.9
				s0.2,0.8,0.2,1.2c0,0.4-0.1,0.8-0.4,1.2c-0.4,0.5-1,1.1-1.9,1.7c-0.9,0.6-1.8,1.1-2.7,1.5c-0.9,0.4-1.4,0.7-1.6,0.7
				c-0.1,0-0.1,0-0.1-0.1c0-0.1,0.1-0.3,0.4-0.5c0.3-0.2,0.6-0.5,0.9-0.8c0.8-0.6,1.2-1.2,1.3-1.8c-1.2,0.3-2.4,0.8-3.5,1.3
				c-1.2,0.5-2.3,1.2-3.5,1.9c-1.1,0.7-2.3,1.6-3.4,2.5c-1.3,1.1-2.4,2.2-3.3,3.4c-0.9,1.2-1.6,2.3-2.1,3.3c-0.5,1-0.7,1.8-0.7,2.3
				c0,0.4,0.1,0.8,0.4,1.1c0.3,0.3,0.6,0.4,1,0.4c0.5,0,1.1-0.2,1.9-0.7c0.8-0.5,1.7-1.1,2.7-1.9c1-0.8,1.9-1.5,2.7-2.2
				c0.8-0.7,1.7-1.4,2.7-2.3c0.9-0.7,1.6-1.3,2.1-1.8c0.5-0.5,0.9-0.9,1.1-1.2c0.5-0.7,1-1.1,1.5-1.2c0.5-0.1,0.9,0,1.3,0.3
				s0.5,0.7,0.5,1.1c0,0.1-0.3,0.7-0.8,1.7c-0.5,1-1.3,2.4-2.4,4.3c-1.1,1.9-2.4,4.1-4,6.7C73.7,77.5,75.9,76,79,73.7z"/>
			<path class="st2" d="M81.1,70.5c1.9-1.7,3.7-2.9,5.4-3.8s3.1-1.2,4-1.2c0.3,0,0.5,0.1,0.7,0.3c0.2,0.2,0.4,0.5,0.5,0.7
				c0.1,0.3,0.2,0.5,0.2,0.6c0,0.2-0.1,0.4-0.3,0.5c-0.2,0.1-0.5,0.2-0.9,0.4c0.1,0.2,0.2,0.4,0.3,0.8c0.1,0.3,0.2,0.6,0.3,0.7
				c0.1,0.2,0.1,0.4,0.1,0.5c0,0.3-0.3,0.8-0.9,1.6c-0.6,0.8-1,1.4-1.2,1.8c-0.2,0.4-0.4,0.8-0.4,1.4c0,0.9,0.4,1.4,1.2,1.4
				c0.9,0,2.2-0.8,4-2.4v1.1c-3.1,3.4-5.3,5.1-6.6,5.1c-0.5,0-0.8-0.2-1-0.5c-0.2-0.3-0.3-0.8-0.3-1.4c0-1,0.3-2.4,1-4.2
				c-1.8,2-3.1,3.4-4,4.2c-0.9,0.8-1.6,1.3-2.1,1.3c-0.3,0-0.6-0.2-1-0.7s-0.8-1.1-1.1-1.8c-0.3-0.7-0.5-1.5-0.5-2.3
				c0-0.6,0.1-1.1,0.2-1.4c0.1-0.4,0.3-0.8,0.6-1.2C79.9,71.7,80.4,71.2,81.1,70.5z M89.9,68.5c-3.2,1.5-5.4,2.7-6.8,3.7
				c-1.3,1-2,2.1-2,3.1c0,0.4,0.1,0.7,0.2,1c0.1,0.3,0.3,0.4,0.5,0.4c0.1,0,0.4-0.1,0.7-0.3c1.3-0.8,2.5-1.7,3.5-3
				C87.1,72.2,88.4,70.6,89.9,68.5z"/>
			<path class="st2" d="M105.2,73.8V75c-1.3,1.3-2.4,2.3-3.2,3s-1.6,1.3-2.3,1.6s-1.4,0.6-2.1,0.6c-0.7,0-1.3-0.3-1.8-0.8
				c-0.6-0.5-1-1.2-1.3-2.1c-0.3-0.9-0.5-1.8-0.5-2.7c0-0.8,0.2-1.6,0.5-2.2s1.1-1.5,2.1-2.5c1.2-1.2,2.4-2.2,3.5-2.8
				c1.1-0.7,1.9-1,2.5-1c0.4,0,0.8,0.2,1.1,0.5c0.3,0.3,0.5,0.7,0.5,1.2c0,0.4-0.2,0.9-0.6,1.7c-0.4,0.7-0.9,1.3-1.4,1.9
				S101.3,72,101,72c-0.3,0-0.5-0.2-0.5-0.5c0-0.1,0-0.2,0-0.3c0-0.1,0-0.2,0-0.3c0-0.1-0.1-0.2-0.2-0.2c-0.1,0-0.2,0-0.4,0.1
				c-1.2,0.9-2.1,1.5-2.5,1.8c-0.5,0.3-0.8,0.7-1.1,1.1c-0.3,0.4-0.4,0.7-0.4,1.1c0,0.7,0.2,1.3,0.7,1.8c0.5,0.5,1.1,0.7,1.8,0.7
				c0.8,0,1.7-0.3,2.8-0.9C102.4,75.8,103.7,75,105.2,73.8z"/>
			<path class="st2" d="M108,74.4v0.5c0,0.7,0.2,1.3,0.5,1.7c0.4,0.4,0.8,0.6,1.4,0.6c0.6,0,1.2-0.1,1.9-0.4
				c0.6-0.3,1.3-0.7,1.9-1.1c0.6-0.5,1.4-1.1,2.3-1.9v1.1c-1.4,1.7-2.7,2.9-3.9,3.8c-1.2,0.9-2.4,1.3-3.7,1.3
				c-1.1,0-1.9-0.4-2.6-1.3c-0.6-0.8-1-2-1-3.5c0-1.3,0.3-2.4,0.9-3.5c0.6-1,1.6-2.1,2.9-3.3c0.9-0.8,1.8-1.4,2.8-1.8
				s1.7-0.6,2.5-0.6c0.6,0,1,0.1,1.4,0.4c0.3,0.3,0.5,0.7,0.5,1.2c0,0.8-0.3,1.5-0.9,2.3c-0.6,0.8-1.4,1.5-2.6,2.3
				C111.2,73,109.8,73.7,108,74.4z M108.2,73.3c1.1-0.4,2-1,2.8-1.6c0.8-0.6,1.4-1.2,1.7-1.8c0.4-0.6,0.6-1,0.6-1.3
				c0-0.3-0.1-0.4-0.4-0.4c-0.2,0-0.6,0.1-1.1,0.4s-1,0.6-1.5,1.1c-0.5,0.5-1,1-1.4,1.6C108.6,71.9,108.3,72.5,108.2,73.3z"/>
			<path class="st2" d="M122.5,64.3h0.8c0.6-1.2,1.2-2,1.8-2.5c0.5-0.5,1.1-0.7,1.8-0.7c0.7,0,1,0.2,1,0.5c0,0.1-0.3,0.5-0.8,1.2
				c-0.5,0.6-0.9,1.2-1.2,1.6c0.4,0,0.8,0.1,1.1,0.1s0.6,0.1,0.8,0.1c-0.7,1.3-1.6,2.6-2.6,4c-0.3,0-0.6,0-0.9-0.1
				c-0.2,0-0.5,0-0.7-0.1c-0.2,0-0.5,0-0.9-0.1c-0.7,1.1-1.2,2-1.7,2.8c-0.4,0.8-0.8,1.6-1,2.3c-0.2,0.7-0.4,1.4-0.4,2
				c0,0.8,0.3,1.3,1,1.3c0.5,0,1.1-0.2,1.8-0.7s1.8-1.3,3-2.3V75c-3.3,3.6-5.7,5.4-7.3,5.4c-0.5,0-1-0.2-1.3-0.6
				c-0.3-0.4-0.5-1-0.5-1.6c0-0.5,0.1-1,0.3-1.6c0.2-0.6,0.5-1.6,1-2.8c-0.2,0.1-0.3,0.3-0.5,0.4c-0.2,0.1-0.3,0.3-0.4,0.4
				c-0.1,0.1-0.3,0.2-0.4,0.4c-0.1,0.1-0.3,0.3-0.4,0.4v-1.3c1.3-1.1,2.8-3,4.7-5.7c-0.2,0-0.4,0-0.5,0c-0.2,0-0.3,0-0.6,0
				c-0.7,0-1.3,0-1.6,0.1c-0.1,0-0.3,0.1-0.4,0.1s-0.2,0.1-0.3,0.1s-0.1,0-0.1-0.1c0-0.4,0.2-1,0.8-1.8c0.4-0.7,0.8-1.2,1.1-1.5
				s0.8-0.6,1.3-0.7C120.8,64.3,121.6,64.3,122.5,64.3z"/>
			<path class="st2" d="M127.6,70.5c1.9-1.7,3.7-2.9,5.4-3.8s3.1-1.2,4-1.2c0.3,0,0.5,0.1,0.7,0.3c0.2,0.2,0.4,0.5,0.5,0.7
				c0.1,0.3,0.2,0.5,0.2,0.6c0,0.2-0.1,0.4-0.3,0.5c-0.2,0.1-0.5,0.2-0.9,0.4c0.1,0.2,0.2,0.4,0.3,0.8c0.1,0.3,0.2,0.6,0.3,0.7
				c0.1,0.2,0.1,0.4,0.1,0.5c0,0.3-0.3,0.8-0.9,1.6c-0.6,0.8-1,1.4-1.2,1.8c-0.2,0.4-0.4,0.8-0.4,1.4c0,0.9,0.4,1.4,1.2,1.4
				c0.9,0,2.2-0.8,4-2.4v1.1c-3.1,3.4-5.3,5.1-6.6,5.1c-0.5,0-0.8-0.2-1-0.5c-0.2-0.3-0.3-0.8-0.3-1.4c0-1,0.3-2.4,1-4.2
				c-1.8,2-3.1,3.4-4,4.2s-1.6,1.3-2.1,1.3c-0.3,0-0.6-0.2-1-0.7c-0.4-0.5-0.8-1.1-1.1-1.8c-0.3-0.7-0.5-1.5-0.5-2.3
				c0-0.6,0.1-1.1,0.2-1.4c0.1-0.4,0.3-0.8,0.6-1.2C126.4,71.7,126.9,71.2,127.6,70.5z M136.4,68.5c-3.2,1.5-5.4,2.7-6.8,3.7
				c-1.3,1-2,2.1-2,3.1c0,0.4,0.1,0.7,0.2,1c0.1,0.3,0.3,0.4,0.5,0.4c0.1,0,0.4-0.1,0.7-0.3c1.3-0.8,2.5-1.7,3.5-3
				C133.6,72.2,134.9,70.6,136.4,68.5z"/>
		</g>
		<g>
			<path class="st2" d="M22.6,108.7c-1.1,1.2-2,2.3-2.9,3.1c-0.8,0.9-1.5,1.5-2.1,1.9c-0.5,0.4-0.9,0.6-1.1,0.6
				c-0.3,0-0.7-0.3-1.1-0.8c-0.4-0.5-0.7-1.2-1-2c-0.3-0.8-0.4-1.6-0.4-2.4c0-1.2,0.6-2.4,1.7-3.6c1.1-1.2,2.5-2.2,3.9-3
				c1.5-0.8,2.6-1.2,3.3-1.2c0.6,0,1.2,0.4,1.8,1.1c0.9-2,1.8-3.7,2.7-5.2c0.8-1.5,1.6-2.7,2.1-3.4c0.6-0.7,1-1.1,1.2-1.1
				c0.3,0,0.5,0.1,0.7,0.4c0.2,0.3,0.3,0.6,0.3,0.9c0,0.6-0.5,1.7-1.4,3.3c-0.9,1.5-1.8,3-2.7,4.5c-0.9,1.5-1.7,2.9-2.3,4.3
				c-0.6,1.4-1,2.7-1,3.9c0,1.1,0.4,1.6,1.1,1.6c0.4,0,1-0.2,1.6-0.7s1.6-1.3,2.8-2.4v1.3c-2.6,3.4-4.7,5.1-6.1,5.1
				c-0.6,0-1-0.2-1.2-0.7c-0.3-0.4-0.4-1.1-0.4-2C22.1,111.3,22.3,110,22.6,108.7z M23.9,104.2c-1.1,0.4-2.4,1-3.8,1.8
				c-1.5,0.8-2.4,1.4-2.7,1.7c-0.3,0.2-0.5,0.7-0.7,1.4c-0.2,0.7-0.3,1.2-0.3,1.5c0,0.2,0.1,0.4,0.2,0.5c0.1,0.1,0.3,0.2,0.5,0.2
				c0.2,0,0.4-0.1,0.6-0.2s0.6-0.4,1.1-0.9c0.5-0.4,0.8-0.7,0.9-0.8c0.2-0.2,0.7-0.6,1.4-1.2c0.7-0.6,1.2-1.1,1.6-1.4
				c0.3-0.3,0.6-0.7,0.8-1.1C23.6,105.2,23.8,104.7,23.9,104.2z"/>
			<path class="st2" d="M32.8,109.3v0.5c0,0.7,0.2,1.3,0.5,1.7c0.4,0.4,0.8,0.6,1.4,0.6c0.6,0,1.2-0.1,1.9-0.4
				c0.6-0.3,1.3-0.7,1.9-1.1s1.4-1.1,2.3-1.9v1.1c-1.4,1.7-2.7,2.9-3.9,3.8c-1.2,0.9-2.4,1.3-3.7,1.3c-1.1,0-1.9-0.4-2.6-1.3
				c-0.6-0.8-1-2-1-3.5c0-1.3,0.3-2.4,0.9-3.5c0.6-1,1.6-2.1,2.9-3.3c0.9-0.8,1.8-1.4,2.8-1.8c0.9-0.4,1.7-0.6,2.5-0.6
				c0.6,0,1,0.1,1.4,0.4c0.3,0.3,0.5,0.7,0.5,1.2c0,0.8-0.3,1.5-0.9,2.3c-0.6,0.8-1.4,1.5-2.6,2.3S34.5,108.6,32.8,109.3z
				 M32.9,108.1c1.1-0.4,2-1,2.8-1.6c0.8-0.6,1.4-1.2,1.7-1.8c0.4-0.6,0.6-1,0.6-1.3c0-0.3-0.1-0.4-0.4-0.4c-0.2,0-0.6,0.1-1.1,0.4
				c-0.5,0.3-1,0.6-1.5,1.1c-0.5,0.5-1,1-1.4,1.6S33.1,107.4,32.9,108.1z"/>
			<path class="st2" d="M63.6,110.7l0.6,0.5c-0.2,0.3-0.3,0.6-0.5,0.9c-0.1,0.3-0.3,0.6-0.5,0.9s-0.4,0.6-0.5,0.8
				c-0.9,1.6-1.8,2.4-2.6,2.4c-0.3,0-0.6-0.1-0.9-0.4c-0.2-0.3-0.4-0.6-0.4-1.1c0-0.7,0.2-1.6,0.7-2.7c0.5-1.1,1.2-2.6,2.2-4.2
				c1-1.7,2.2-3.6,3.7-5.7s3.2-4.4,5-6.7c-1.1-0.2-2.4-0.2-3.8-0.2c-1.7,0-3.6,0.2-5.7,0.6c-2.1,0.4-3.9,0.8-5.4,1.3
				c-1.5,0.5-2.3,0.9-2.3,1.1c0,0.1,0,0.1,0.1,0.2c0.1,0,0.2,0.1,0.3,0.1c0.1,0,0.3,0,0.5,0.1c1.4,0.2,2.1,0.4,2.1,0.7
				c0,0.1-0.3,0.2-0.9,0.2c-0.6,0-1.4,0-2.3,0c-0.7,0-1.2,0-1.5-0.1c-0.3-0.1-0.5-0.2-0.6-0.3c-0.1-0.2-0.2-0.4-0.2-0.7
				c0-0.2,0.1-0.7,0.2-1.4c0.2-1.3,0.6-2.3,1.1-3.1s1.2-1.4,2.2-1.9s2.4-0.9,4.1-1.2c2.9-0.5,5.4-0.8,7.3-0.8c1.4,0,2.5,0.1,3.4,0.2
				s1.4,0.3,1.8,0.5s0.6,0.4,0.7,0.6c0.1,0.2,0.2,0.6,0.4,1.1l0.6,1.7c0,0.1,0.1,0.2,0.1,0.3c0,0.1,0,0.1,0.1,0.2s0,0.1,0,0.2
				c0,0.5-0.1,0.9-0.3,1.3c-0.2,0.4-0.6,0.9-1.2,1.7s-1,1.3-1.3,1.8C66.9,104.5,64.8,108.3,63.6,110.7z"/>
			<path class="st2" d="M72.1,105.3c1.9-1.7,3.7-2.9,5.4-3.8c1.7-0.8,3.1-1.2,4-1.2c0.3,0,0.5,0.1,0.7,0.3c0.2,0.2,0.4,0.5,0.5,0.7
				c0.1,0.3,0.2,0.5,0.2,0.6c0,0.2-0.1,0.4-0.3,0.5c-0.2,0.1-0.5,0.2-0.9,0.4c0.1,0.2,0.2,0.4,0.3,0.8c0.1,0.3,0.2,0.6,0.3,0.7
				c0.1,0.2,0.1,0.4,0.1,0.5c0,0.3-0.3,0.8-0.9,1.6c-0.6,0.8-1,1.4-1.2,1.8c-0.2,0.4-0.4,0.8-0.4,1.4c0,0.9,0.4,1.4,1.2,1.4
				c0.9,0,2.2-0.8,4-2.4v1.1c-3.1,3.4-5.3,5.1-6.6,5.1c-0.5,0-0.8-0.2-1-0.5c-0.2-0.3-0.3-0.8-0.3-1.4c0-1,0.3-2.4,1-4.2
				c-1.8,2-3.1,3.4-4,4.2s-1.6,1.3-2.1,1.3c-0.3,0-0.6-0.2-1-0.7s-0.8-1.1-1.1-1.8c-0.3-0.7-0.5-1.5-0.5-2.3c0-0.6,0.1-1.1,0.2-1.4
				s0.3-0.8,0.6-1.2C70.9,106.5,71.4,106,72.1,105.3z M80.9,103.3c-3.2,1.5-5.4,2.7-6.8,3.7c-1.3,1-2,2.1-2,3.1c0,0.4,0.1,0.7,0.2,1
				c0.1,0.2,0.3,0.4,0.5,0.4c0.1,0,0.4-0.1,0.7-0.3c1.3-0.8,2.5-1.7,3.5-3S79.4,105.4,80.9,103.3z"/>
			<path class="st2" d="M97.5,105.3c-2.1,2.4-3.2,4.1-3.2,5c0,0.5,0.2,0.8,0.6,0.8c0.4,0,0.8-0.2,1.4-0.6c0.6-0.4,1.5-1,2.7-2v1.3
				c-1.7,1.7-3.1,2.9-4,3.7s-1.7,1.1-2.3,1.1c-1,0-1.5-0.7-1.5-2c0-0.4,0.1-0.8,0.2-1.2c0.1-0.4,0.3-0.8,0.5-1.2
				c0.2-0.4,0.5-1,1-1.8c0.4-0.8,0.9-1.6,1.5-2.6c-0.7,0.4-1.6,1.1-2.6,2.1c-0.7,0.7-1.3,1.3-1.7,1.9c-0.5,0.6-1,1.3-1.5,2
				c-0.5,0.7-0.9,1.2-1.2,1.5c-0.2,0.2-0.5,0.4-0.8,0.4c-0.4,0-0.8-0.4-1.1-1.2c-0.3-0.8-0.5-1.8-0.5-2.9c0-0.7,0.1-1.2,0.2-1.6
				c0.2-0.4,0.5-0.9,0.9-1.6c0.8-1.3,1.6-2.2,2.2-2.8c0.6-0.6,1.2-0.9,1.8-0.9c0.4,0,0.7,0.1,0.9,0.2c0.2,0.1,0.4,0.3,0.4,0.6
				c0,0.1,0,0.2-0.1,0.4c-0.1,0.1-0.2,0.3-0.2,0.4c-0.1,0.1-0.3,0.3-0.6,0.6c-1.9,2.1-2.9,3.5-2.9,4.2c0,0.4,0.1,0.5,0.3,0.5
				c0.1,0,0.4-0.2,0.9-0.7c0.4-0.5,1-1.1,1.6-1.8c0.7-0.8,1.5-1.6,2.4-2.4c0.9-0.8,1.9-1.6,3.1-2.4c0.6-0.5,1.2-0.7,1.6-0.7
				c0.2,0,0.4,0.3,0.6,0.8c0.2,0.5,0.3,1.1,0.3,1.6C98.3,104.3,98,104.8,97.5,105.3z"/>
			<path class="st2" d="M107.2,108.7c-1.1,1.2-2,2.3-2.9,3.1c-0.8,0.9-1.5,1.5-2.1,1.9c-0.5,0.4-0.9,0.6-1.1,0.6
				c-0.3,0-0.7-0.3-1.1-0.8c-0.4-0.5-0.7-1.2-1-2c-0.3-0.8-0.4-1.6-0.4-2.4c0-1.2,0.6-2.4,1.7-3.6c1.1-1.2,2.5-2.2,3.9-3
				c1.5-0.8,2.6-1.2,3.3-1.2c0.6,0,1.2,0.4,1.8,1.1c0.9-2,1.8-3.7,2.7-5.2s1.6-2.7,2.1-3.4c0.6-0.7,1-1.1,1.2-1.1
				c0.3,0,0.5,0.1,0.7,0.4c0.2,0.3,0.3,0.6,0.3,0.9c0,0.6-0.5,1.7-1.4,3.3c-0.9,1.5-1.8,3-2.7,4.5c-0.9,1.5-1.7,2.9-2.3,4.3
				c-0.6,1.4-1,2.7-1,3.9c0,1.1,0.4,1.6,1.1,1.6c0.4,0,1-0.2,1.6-0.7s1.6-1.3,2.8-2.4v1.3c-2.6,3.4-4.7,5.1-6.1,5.1
				c-0.6,0-1-0.2-1.2-0.7s-0.4-1.1-0.4-2C106.8,111.3,106.9,110,107.2,108.7z M108.6,104.2c-1.1,0.4-2.4,1-3.8,1.8
				c-1.5,0.8-2.3,1.4-2.7,1.7c-0.3,0.2-0.5,0.7-0.7,1.4c-0.2,0.7-0.3,1.2-0.3,1.5c0,0.2,0.1,0.4,0.2,0.5c0.1,0.1,0.3,0.2,0.5,0.2
				c0.2,0,0.4-0.1,0.6-0.2c0.2-0.1,0.6-0.4,1.1-0.9c0.5-0.4,0.8-0.7,0.9-0.8c0.2-0.2,0.7-0.6,1.4-1.2c0.7-0.6,1.2-1.1,1.6-1.4
				c0.3-0.3,0.6-0.7,0.8-1.1C108.3,105.2,108.5,104.7,108.6,104.2z"/>
			<path class="st2" d="M123.3,108.6v1.3c-1.2,1.5-2.3,2.7-3.3,3.5c-1,0.8-1.9,1.2-2.6,1.2c-1,0-1.7-0.5-2.2-1.6s-0.7-2.2-0.7-3.4
				c0-0.5,0-0.9,0.1-1.4c0.1-0.4,0.2-0.8,0.3-1.1c0.1-0.3,0.4-0.7,0.8-1.3c1.7-2.7,3.3-4,4.8-4c0.7,0,1.1,0.3,1.1,0.9
				c0,0.4-0.2,1-0.7,1.8c-0.5,0.8-0.9,1.4-1.3,1.8c-1.1,1-1.8,1.7-2.1,2.1c-0.3,0.4-0.5,0.9-0.5,1.4c0,0.4,0.2,0.8,0.5,1.1
				c0.3,0.3,0.8,0.4,1.3,0.4c0.6,0,1.2-0.2,1.9-0.6C121.3,110.2,122.2,109.5,123.3,108.6z M122,100.4c-0.3,0-0.6-0.1-0.9-0.3
				c-0.3-0.2-0.4-0.5-0.4-0.9c0-0.5,0.3-1.1,0.8-1.8c0.5-0.7,1-1,1.6-1c0.4,0,0.7,0.1,0.9,0.3c0.2,0.2,0.4,0.6,0.4,1
				c0,0.5-0.3,1.1-0.8,1.7C123.1,100.1,122.6,100.4,122,100.4z"/>
			<path class="st2" d="M131.8,108.4v1.4c-2.6,3.4-4.6,5.1-6.2,5.1c-0.9,0-1.5-0.5-2-1.4c-0.5-0.9-0.7-2.2-0.7-3.7
				c0-1.2,0.3-2.7,0.9-4.4s1.4-3.5,2.4-5.2c1-1.8,2-3.3,3.1-4.6s2-2.2,2.9-2.8c0.4-0.2,0.7-0.3,0.9-0.3c0.3,0,0.4,0.1,0.5,0.3
				c0.1,0.2,0.1,0.6,0.1,1.2c0,1.7-0.7,3.8-2.1,6.3c-1.4,2.5-3.3,5-5.8,7.6c-0.1,0.6-0.2,1.1-0.2,1.5c0,0.8,0.2,1.4,0.5,1.9
				c0.3,0.5,0.8,0.7,1.4,0.7c0.3,0,0.6-0.1,1-0.4c0.4-0.2,0.7-0.5,1.1-0.9C129.9,110.2,130.7,109.5,131.8,108.4z M126.4,105.1
				c0.6-0.6,1.2-1.3,1.8-2.1c0.6-0.8,1.2-1.6,1.7-2.5c0.5-0.9,0.9-1.7,1.2-2.4c0.3-0.7,0.4-1.3,0.4-1.6c0-0.3-0.1-0.4-0.3-0.4
				c-0.1,0-0.2,0.1-0.4,0.2c-0.7,0.6-1.6,1.8-2.5,3.6C127.4,101.5,126.8,103.3,126.4,105.1z"/>
		</g>
	</g>
	<path class="st3" d="M50.1,52.7c-0.1,0-0.2,0-0.4,0c1.2-1.7,1.9-4,5.9-7c1.8-1.4,2.6-1.6,4.4-3.6c1.5-1.6,3.3-1.9,2.6-4.7l-3.8,1.1
		L54.2,39c0.2-0.7,0.3-0.5-0.5-0.3c0.2-0.8,0.4-0.7-0.3-0.7L52,35.4l0.1,0c-0.3-1.5-0.5-2-1.5-3.1l0.2-1.2c0.2-2.4,0.1-0.9-0.4-1.2
		c0.5-1.6,0.5-4.4,0.1-6c0.5-0.3,0.9,0.8,0.4-0.8c0.3-0.2,0.4-0.2,0.4-0.2c0,0,0,0,0,0c0,0,0-0.1,0.3-0.5c0,0,0.4-0.8,0.4-0.8
		c0.4-1,0.4-0.9,0.5-1.9c0.3-0.3,0.1,0.9,0.7-1c0.5-1.4,0.2-0.8,0.1-1.4c0.4-0.2,0.5,1,0.3-0.9c0.8,0.2,0.4,0.2,0.2-0.6
		c1-0.2,0.3,0.2,0.6-1.3c0.7-3.9-1.4-6.4,1.7-8.8c3.8-2.9,6.5-1.4,10.3-0.3c1,0.3,7.6,1,8.4,0.8c0.8,0.6-1.6,0.4,1.4,0.7l1-0.3
		c0.1,0.1,0.2,0.1,0.3,0.2c0.1,0.1,0.2,0.2,0.3,0.2c1.2,0.2,0.3,0.1,1.1,0l2.3,0.5c-0.3,1-0.3,0.7,0.7,0.4l0.3-0.1L83.9,9
		c0.7,0.4,1.1,0.5,2.1,0.8l4.6,1c0.2,1.3,0.2,1.8-0.5,3L82,25c-0.5,0.6-0.7,0.8-1.3,1.1l-7.4,3.5c-0.6,0.5-0.2,0.2-0.6,0.6
		c-0.7-0.1-0.6-0.3-0.5,0.3c-0.6-0.1-0.5-0.2-0.3,0.4c-0.1,0.2-0.2-0.1-0.4,0.9c-0.1,0.6,0,0.5,0,1c1.2,0.6,1.5,0.6,2.7-0.2
		c1.7,0.1,0.6,0.1,1-0.4l0.2,0.1c0.6,0,0.5,0.1,1.3,0c2-0.2,0.4-0.1,1.1-0.4c1.6,0.2,0.4,0.1,0.8-0.4c0.2,0,1.5,0.1,1.7,0.1l1.7-0.7
		c2-0.1,4.4-0.8,5.2-2.2c1-1.8-0.2-1.8,3.4-3.7c2.3-1.2,3.3-2.7,5-3.4c0.8-0.3,1.6-0.5,2.4-0.9"/>
	<path class="st4" d="M50.1,52.7c-0.1,0-0.2,0-0.4,0c1.2-1.7,1.9-4,5.9-7c1.8-1.4,2.6-1.6,4.4-3.6c1.5-1.6,3.3-1.9,2.6-4.7l-3.8,1.1
		L54.2,39c0.2-0.7,0.3-0.5-0.5-0.3c0.2-0.8,0.4-0.7-0.3-0.7L52,35.4l0.1,0c-0.3-1.5-0.5-2-1.5-3.1l0.2-1.2c0.2-2.4,0.1-0.9-0.4-1.2
		c0.5-1.6,0.5-4.4,0.1-6c0.5-0.3,0.9,0.8,0.4-0.8c0.3-0.2,0.4-0.2,0.4-0.2c0,0,0,0,0,0c0,0,0-0.1,0.3-0.5c0,0,0.4-0.8,0.4-0.8
		c0.4-1,0.4-0.9,0.5-1.9c0.3-0.3,0.1,0.9,0.7-1c0.5-1.4,0.2-0.8,0.1-1.4c0.4-0.2,0.5,1,0.3-0.9c0.8,0.2,0.4,0.2,0.2-0.6
		c1-0.2,0.3,0.2,0.6-1.3c0.7-3.9-1.4-6.4,1.7-8.8c3.8-2.9,6.5-1.4,10.3-0.3c1,0.3,7.6,1,8.4,0.8c0.8,0.6-1.6,0.4,1.4,0.7l1-0.3
		c0.1,0.1,0.2,0.1,0.3,0.2c0.1,0.1,0.2,0.2,0.3,0.2c1.2,0.2,0.3,0.1,1.1,0l2.3,0.5c-0.3,1-0.3,0.7,0.7,0.4l0.3-0.1L83.9,9
		c0.7,0.4,1.1,0.5,2.1,0.8l4.6,1c0.2,1.3,0.2,1.8-0.5,3L82,25c-0.5,0.6-0.7,0.8-1.3,1.1l-7.4,3.5c-0.6,0.5-0.2,0.2-0.6,0.6
		c-0.7-0.1-0.6-0.3-0.5,0.3c-0.6-0.1-0.5-0.2-0.3,0.4c-0.1,0.2-0.2-0.1-0.4,0.9c-0.1,0.6,0,0.5,0,1c1.2,0.6,1.5,0.6,2.7-0.2
		c1.7,0.1,0.6,0.1,1-0.4l0.2,0.1c0.6,0,0.5,0.1,1.3,0c2-0.2,0.4-0.1,1.1-0.4c1.6,0.2,0.4,0.1,0.8-0.4c0.2,0,1.5,0.1,1.7,0.1l1.7-0.7
		c2-0.1,4.4-0.8,5.2-2.2c1-1.8-0.2-1.8,3.4-3.7c2.3-1.2,3.3-2.7,5-3.4c0.8-0.3,1.6-0.5,2.4-0.9"/>
</g>
</svg>
